<?xml version="1.0" encoding="UTF-8" standalone="no"?>
<svg height="100%" stroke-miterlimit="10" style="fill-rule:nonzero;clip-rule:evenodd;stroke-linecap:round;stroke-linejoin:round;" version="1.1" viewBox="0 0 420 420" width="100%" xml:space="preserve" xmlns="http://www.w3.org/2000/svg">
<defs/>
<g id="Untitled">
<path d="M210 386.75C320.46 386.75 410 297.21 410 186.75L10 186.75C10 297.21 99.54 386.75 210 386.75Z" fill="#b6934d" fill-rule="nonzero" opacity="1" stroke="none"/>
<path d="M57 186.75C57 102.25 125.5 33.75 210 33.75C294.5 33.75 363 102.25 363 186.75C363 271.25 294.5 339.75 210 339.75C125.5 339.75 57 271.25 57 186.75Z" fill="#049268" fill-rule="nonzero" opacity="1" stroke="none"/>
<path d="M340.86 266.35L341.01 266.11L372.89 266.13C372.88 265.86 371.86 238.57 366.33 197.66C365.34 190.32 364.13 183.12 362.75 176.27C362.29 173.48 361.7 171.07 361.03 168.28L360.98 168.09C356.05 146.78 350.99 136.1 350.94 136L347.06 136.09L346.91 135.87C346.64 135.48 346.38 135.11 346.13 134.75L345.59 133.98L350.01 133.87C349.89 133.46 347.03 123.66 329.01 119.77C325.92 119.1 323.37 119 321.44 119.46L321.18 119.52L320.98 119.34C318.25 116.86 314.28 115.67 309.19 115.82C304.59 115.96 301.24 117.3 299.23 119.81L299.03 120.06L298.72 119.98C295.06 119.06 288.22 119.48 276.44 126.69C264.62 133.92 255.55 158.67 250.19 198.26L250.08 199.05L249.23 198.43L249.15 198.31L249.15 198.15C249.11 197.31 248.95 196.52 248.64 195.79L247.78 196.26L246.59 194.49L247.35 193.87C246.12 192.64 244.38 191.97 242.55 192.11C242.19 192.14 241.86 192.22 241.53 192.37L241.39 192.43L241.24 192.4C236.56 191.63 233.87 190.21 233.24 188.17L233.22 188.09L233.22 188.01C233.24 187.49 233.22 187.02 233.18 186.56C232.69 186.8 232.13 186.8 231.56 186.56C230.79 186.23 230.15 185.51 229.89 184.7C229.59 183.74 229.68 182.72 229.81 181.86L230.32 181.81L230.32 181.81L229.83 181.73C229.88 181.45 229.93 181.16 229.98 180.88L230.06 180.45C230.62 177.32 230.82 175.16 230.4 172.12C230.38 171.8 230.36 171.72 230.36 171.72C229.65 170.33 230.04 169.38 230.33 168.94L230.5 168.73C231.12 167.87 231.66 167.02 232.2 166.15C234.5 162.46 237.06 158.17 238.25 153.79L238.44 153.08L239.03 153.52C239.08 153.56 239.14 153.6 239.19 153.63C239.86 154.05 240.75 154.06 241.5 153.67C243.04 152.87 243.56 151.15 243.94 149.59C244.8 146.02 245.32 142.36 245.5 138.69C245.56 137.44 245.3 136.34 244.79 135.75L244.48 135.38L244.84 135.05C245.28 134.65 245.62 133.81 245.66 133.03C245.72 131.8 245.8 130.41 245.37 129.16C244.98 128.03 244.14 127.13 243.18 126.81C242.49 126.59 241.78 126.66 241.06 127.03L240.09 127.54L240.34 126.48C240.62 125.31 240.68 124.09 240.75 122.91C240.87 120.68 240.96 118.47 240.92 116.33L239.92 116.35L239.92 116.35L239.89 115.25L240.89 115.22C240.7 110.22 239.72 105.63 236.77 101.93C235.27 100.05 233.24 98.41 230.39 96.76C222.97 92.47 214.17 90.49 205.63 91.21C197.09 91.92 188.74 95.32 182.14 100.79C179.32 103.12 177.55 105.29 176.56 107.61C175.14 110.95 175.35 114.68 175.56 118.28C175.71 121.05 175.87 123.91 175.32 126.62C176.48 126.5 177.57 127.11 178.58 128.41L178.64 128.51C179.14 129.63 179.3 130.01 179.3 130.26C179.34 130.4 179.75 131.32 180.13 132.09L180.18 132.14L180.34 132.89L180.56 134.13L179.55 133.38C178.6 132.69 177.86 131.73 177.61 130.88C176.97 128.74 175.36 128.29 174.16 128.56C172.58 128.91 171.08 130.63 171.52 133.59C171.89 136.1 172.22 137.25 172.63 137.43C172.8 137.51 172.97 137.43 173.26 137.25C173.59 137.04 173.94 136.83 174.39 137.1L174.59 137.22L174.63 137.45C174.66 137.62 174.61 137.81 174.49 138.24C174.19 139.33 173.64 141.36 174.49 145.75C175.01 148.44 176.25 153.18 178.78 154.67C179.59 155.15 180.46 155.24 181.38 154.94L181.83 154.79L182.08 155.2L182.4 156.03C182.84 157.27 183.37 158.61 183.94 160.04C185.78 164.67 188.25 170.9 189.53 178.69L189.76 180.22C189.85 180.87 189.93 181.52 190.01 182.18C190.15 184.01 189.94 185.14 189.35 185.65C188.97 185.98 188.58 185.92 188.51 185.91C186.31 185.76 182.51 185.48 180.44 187.92C180.29 188.07 180.2 188.17 180.15 188.26L180.06 188.43C179.96 188.59 179.85 188.76 179.76 188.93C178.44 191 175.95 192.84 172.13 194.6C170.96 195.14 169.77 195.6 168.61 195.97L168.05 196.15L167.97 195.57C167.16 189.85 166.33 184.68 165.49 180.19C164.33 175.18 163.48 170.24 162.66 165.45C161.36 157.9 160.03 150.14 157.49 142.21C153.74 130.45 143.35 123.89 137.5 121.02C131.34 118 124.6 116.4 120.74 117.01L120.59 117.03L120.46 116.97C115.76 114.9 109.27 114.63 103.53 116.26C100.46 117.13 97.95 118.4 96.08 120.04L95.9 120.2L95.66 120.15C94.06 119.84 92.32 119.86 90.5 120.2C77.67 122.64 67.91 134 61.48 153.95C61.39 154.23 61.25 154.55 61.07 154.94C60.47 156.27 59.37 158.74 58.49 164.83C48.81 206.62 53.73 262.98 53.95 265.36C60.97 265.83 77.27 265.91 79.1 265.91L79.39 265.91C79.39 265.91 98.51 305.76 149.26 327.38L149.47 327.47L149.54 327.69C150.38 330.53 151.04 333.16 151.45 335.29C152.35 339.99 152.91 344.53 153.13 348.79C153.37 353.32 153.61 358 158.83 359.71C160.23 360.17 161.27 360.09 161.95 359.45C163.11 358.37 163.17 355.65 162.12 351.59C161.85 350.53 161.55 349.47 161.25 348.4C160.36 345.23 159.45 342 159.19 338.7C158.92 335.31 158.71 334.26 159.84 331.96L164.37 333.45C164.13 336.61 166.28 341.57 167.63 341.92C168.06 342.03 168.3 341.74 168.42 341.48C169.08 340.05 170.43 339.33 171.4 339.26C171.97 339.22 172.39 339.39 172.61 339.73C172.76 339.96 172.82 340.23 172.87 340.48C173.07 341.41 173.26 342.28 177.2 341.47C179.52 340.99 182.29 339.07 184.01 337.78C184.01 337.78 186.05 340.28 216.92 340.37C216.92 340.37 234.07 339.74 239.98 337.63C241.28 337.17 246.07 336.29 246.07 336.29L246.26 336.52C247.46 337.92 250.08 338.07 252.01 337.62C253.73 337.22 254.87 336.41 254.98 335.52C255.02 335.23 254.95 334.95 254.79 334.66L254.48 334.12L256.22 333.58L256.37 334.06C256.7 335.13 257.04 336.24 257.39 336.71C257.78 337.23 259.87 337.07 262.09 336.9C264.95 336.68 267.01 336.57 267.73 337.12C269.38 338.4 272.62 337.59 273.26 337.41C275.17 336.88 276.65 335.99 276.96 335.2C277.02 335.05 277.14 334.82 277.3 334.52C278.32 332.6 280.63 328.29 278.7 324.56L278.48 324.13L278.91 323.9C281.34 322.58 283.72 321.18 286.01 319.75L286.32 319.55C308.65 306.69 327.51 288.29 340.89 266.31L340.86 266.35Z" fill="#ffffff" fill-rule="nonzero" opacity="1" stroke="none"/>
<path d="M160.41 360.53C159.89 360.53 159.31 360.43 158.67 360.22C153.13 358.4 152.86 353.33 152.63 348.85C152.41 344.62 151.84 340.1 150.95 335.42C150.53 333.24 149.86 330.58 149.06 327.87C126.93 318.29 107.16 303.45 91.7 284.79C91.6 284.67 91.56 284.5 91.6 284.34C91.64 284.18 91.76 284.06 91.91 284C92.93 283.64 94.11 283.26 95.41 282.84C100.43 281.24 107.12 279.1 112.49 275.16C101.25 277.14 83.8 273.14 83.02 272.95C82.89 272.92 82.77 272.83 82.7 272.71L79.09 266.42C76.76 266.42 60.85 266.33 53.9 265.87C53.66 265.85 53.46 265.66 53.44 265.41C53.12 261.81 48.38 206.45 57.97 164.91C68.71 89.61 133.46 33.25 210 33.24C250.85 33.24 289.26 48.99 318.16 77.6C344.89 104.06 360.69 138.77 363.23 176.15C364.52 182.54 365.75 189.69 366.81 197.58C372.31 238.25 373.36 265.83 373.37 266.1C373.37 266.23 373.32 266.37 373.23 266.46C373.14 266.56 373.01 266.61 372.87 266.61L372.87 266.61L341.28 266.59C326.56 290.76 305.52 310.39 280.41 323.37C280.22 323.47 279.99 323.43 279.84 323.29C279.69 323.14 279.64 322.92 279.73 322.72C279.75 322.68 281.4 319.05 281.99 313.54C282.65 307.41 282.19 303.17 281.37 302.62C281.33 302.59 281.27 302.56 281.11 302.64C277.57 304.53 273.76 304 270.26 302.57C266.12 303.15 261.62 303.25 258.21 303.2C256.07 303.17 254.71 302.53 254.18 301.3C253.41 299.54 254.67 296.96 256.17 295.31C256.82 294.59 257.75 293.78 258.48 294.01C259.11 294.21 260.07 294.93 261.52 296.02C263.74 297.68 266.92 300.07 270.4 301.55C275.22 300.85 279.59 299.47 280.58 296.8C281.57 294.12 281.6 288.19 281.42 283.32C278.99 282.84 277.64 282.01 277.33 280.79C276.69 278.34 280.72 275.63 281.18 275.33C281.33 275.24 281.51 275.22 281.67 275.3C281.83 275.38 281.93 275.53 281.95 275.7C281.98 275.98 282.24 278.85 282.39 282.48C283.01 282.57 283.72 282.65 284.53 282.71C294.21 283.37 300.97 279.99 303.71 278.28C298.94 278.37 285.6 278.23 281.25 273.84C280.23 272.81 279.75 271.6 279.83 270.25C279.87 269.59 279.99 268.73 280.17 267.69C276.16 267.78 271.44 267.81 266.6 267.65C262.48 267.51 258.81 267.3 255.73 267.07C255.08 282.11 254.19 296.73 253.19 298.36C245.26 311.35 231.43 314.17 228.53 314.63C229.14 315.3 231.82 316.62 235.49 316.92C239.06 317.21 247.33 316.74 251.17 307.05C251.53 305.74 251.89 304.59 252.15 304C252.15 303.98 252.15 303.96 252.16 303.95L252.17 303.95C252.26 303.74 252.34 303.61 252.41 303.57C252.59 303.47 252.8 303.49 252.96 303.61C253.23 303.82 253.18 304.02 253.01 304.67C252.77 305.57 252.5 306.4 252.2 307.19C251.44 309.84 250.5 313.38 250.56 313.95C250.92 317.22 256.91 317.49 260.87 317.67C261.35 317.69 261.8 317.71 262.21 317.74C271.28 318.27 276.94 320.43 279.04 324.17C281.29 328.18 278.84 332.78 277.79 334.74C277.62 335.05 277.49 335.29 277.44 335.44C277 336.59 275.06 337.49 273.4 337.95C272.45 338.21 269.22 338.96 267.44 337.57C266.82 337.09 264.12 337.3 262.15 337.45C259.13 337.69 257.53 337.77 257.01 337.06C256.61 336.52 256.27 335.4 255.91 334.22C255.6 333.21 255.08 331.51 254.74 331.31C254.55 331.19 253.66 331.28 252.96 331.7C252.61 331.9 252.49 332.09 252.49 332.17C252.49 332.23 252.61 332.41 253.02 332.63C254.81 333.56 255.64 334.57 255.51 335.65C255.37 336.77 254.12 337.72 252.16 338.17C249.88 338.71 246.87 338.45 245.66 336.63C243.91 333.98 242.6 329.75 242.15 326.87C241.6 326.87 241.04 326.87 240.47 326.87C240.58 327.36 240.7 327.85 240.82 328.34C241.89 332.8 242.8 336.66 240.3 337.91C235.12 340.5 200.04 342.07 198.12 339.8C197.12 338.62 197.99 331.82 199.32 330.36C203 326.31 209.6 326.21 214.9 326.13L215.21 326.13C222.8 326 233.33 325.86 242.03 325.88C241.97 325.27 241.97 324.76 242.03 324.39C242.19 323.39 243.18 322.15 244.6 321.13C246.07 320.08 249.22 318.44 253.71 319.23C266.32 321.46 272.52 323.67 272.15 325.81C271.74 328.14 263.69 328.51 256.76 327.29C255.14 327 249.73 326.89 243.15 326.87C243.58 329.53 244.79 333.52 246.48 336.08C247.38 337.44 249.9 337.68 251.92 337.2C253.39 336.86 254.43 336.18 254.51 335.52C254.59 334.93 253.87 334.19 252.55 333.51C251.85 333.15 251.5 332.71 251.48 332.19C251.48 331.84 251.63 331.32 252.44 330.84C253.27 330.35 254.57 330.06 255.23 330.45C255.86 330.82 256.26 332.01 256.85 333.92C257.16 334.92 257.51 336.06 257.81 336.47C258.16 336.76 260.52 336.58 262.07 336.46C265.12 336.23 267.19 336.12 268.04 336.79C268.97 337.51 270.97 337.59 273.13 337C275.05 336.47 276.3 335.62 276.51 335.09C276.58 334.92 276.72 334.64 276.91 334.28C277.88 332.46 280.16 328.2 278.17 324.66C276.25 321.23 270.86 319.24 262.15 318.73C261.74 318.71 261.3 318.69 260.82 318.67C256.52 318.48 250.02 318.18 249.57 314.07C249.55 313.86 249.78 312.71 250.12 311.24C247.4 315.26 243.78 316.93 240.82 317.59C234.78 318.93 229.04 316.74 227.78 315.24C227.35 314.73 227.39 314.31 227.5 314.05C227.57 313.88 227.73 313.77 227.91 313.75C228.07 313.73 243.78 311.93 252.36 297.87C253.21 296.48 254.09 282 254.75 267.02C254.46 267 254.17 266.97 253.89 266.95C251.12 286.2 245.9 304.76 236.08 309.95C227.55 314.46 210.33 311.78 209.6 311.66C209.4 311.63 209.24 311.48 209.2 311.28C209.15 311.08 209.23 310.88 209.4 310.76C209.48 310.7 217.76 304.61 224.79 283.07C229.13 269.77 238.11 249.16 246.27 232.42C246.96 222.68 247.96 211.6 249.43 200.33C249.1 201.76 248.41 203.29 247.38 204.95C240.5 215.99 227.27 222.98 213.43 222.98C213.04 222.98 212.64 222.98 212.24 222.96C199.14 222.58 185.71 215.96 176.3 205.24C173.03 201.51 171.65 198.12 172.2 195.15C171.02 195.67 169.84 196.2 168.67 196.73C172.14 221.8 174.21 250.74 174.83 260.17C182.5 261.59 195.95 262.24 200.1 260.33C203.14 258.94 209.1 244.84 213.04 235.51C216.93 226.31 218.01 223.96 218.85 223.84C219.07 223.81 219.27 223.89 219.41 224.06L219.6 224.29C220.93 225.84 221.04 226.4 216.79 235.02C214.95 238.75 210.04 250.01 204.84 261.92C197.42 278.92 189.76 296.48 187.87 299.54C189.3 301.21 197.08 309.91 206.75 313.32C215.07 316.25 223.8 315.17 223.88 315.16C224.02 315.14 224.17 315.19 224.28 315.29C224.32 315.33 228.15 318.87 233.1 319.67C236.67 320.25 241.88 318.72 241.93 318.7C242.13 318.64 242.33 318.7 242.46 318.87C242.59 319.03 242.6 319.25 242.5 319.42C239.05 325.46 222.94 323.92 222.25 323.85C222 323.83 221.81 323.62 221.8 323.37L221.72 320.45C221.72 318.13 221.4 317.07 221.2 316.7C221.01 317.08 220.7 318.18 220.82 320.58C220.91 322.33 220.43 323.88 219.67 324.36C219.36 324.55 219.01 324.56 218.71 324.39C217.97 323.98 217.61 322.52 217.64 320.06C217.66 317.77 217.44 316.94 217.32 316.64C217.02 317.03 216.57 318.24 216.58 319.34C216.58 319.39 216.3 324.63 214.96 324.64C214.35 324.61 213.92 324.28 213.86 319.57C213.83 316.88 213.35 316.53 213.34 316.52C213.25 316.6 212.74 317.41 212.63 318.88C212.47 320.98 212.14 325.36 208.54 325.36L208.52 325.36C205.74 325.34 202.68 325.19 199.44 325.02C196.63 324.87 193.74 324.72 190.92 324.67C194.36 327.92 195.05 332.41 195.18 333.86C195.42 336.4 194.94 338.56 193.95 339.49C192.92 340.45 188.85 340.11 185.4 338.78C183.82 338.17 183.21 338.68 182.1 339.6C181.07 340.46 179.8 341.52 177.31 342.03C173.57 342.8 172.72 342.17 172.39 340.65C172.34 340.42 172.29 340.21 172.2 340.06C172.09 339.88 171.83 339.8 171.45 339.82C170.59 339.88 169.44 340.56 168.89 341.75C168.61 342.35 168.1 342.61 167.52 342.47C165.82 342.03 163.51 337.52 163.76 334.21C163.99 331.17 167.83 325.6 171.38 322.64C170.59 322.9 169.76 323.22 168.91 323.61C161.78 326.95 159.11 331.32 159.71 338.72C159.97 341.97 160.87 345.18 161.75 348.29C162.05 349.37 162.35 350.44 162.63 351.52C163.74 355.83 163.63 358.63 162.31 359.86C161.82 360.32 161.2 360.54 160.43 360.54L160.41 360.53ZM150.24 328.37C150.95 330.84 151.55 333.23 151.93 335.23C152.83 339.95 153.4 344.52 153.62 348.79C153.85 353.15 154.08 357.66 158.98 359.26C160.19 359.66 161.08 359.61 161.61 359.11C162.61 358.17 162.62 355.55 161.64 351.73C161.37 350.66 161.07 349.59 160.77 348.52C159.89 345.36 158.97 342.1 158.7 338.76C158.06 330.88 160.89 326.22 168.48 322.67C170.4 321.81 172.19 321.24 173.86 320.97C174.31 320.73 174.54 320.19 174.55 319.39C174.58 316.35 171.25 310.33 165.99 306.82C163.45 308.02 158.79 309.11 152.68 310.44C149.43 311.15 146.35 311.82 144.17 312.48C143.95 312.55 143.7 312.45 143.59 312.24C142.14 309.53 143.08 307.65 144.13 306.54C147.84 302.65 158.91 302.15 164.16 304.64C164.82 304.95 165.46 305.3 166.07 305.68C166.62 305.38 166.99 305.08 167.12 304.79C167.16 304.69 167.17 304.6 167.08 304.46C166.65 303.75 165.13 303.07 162.91 302.59C156.93 301.31 147.82 301.82 143.79 304.61C143.65 304.7 143.48 304.72 143.33 304.66C143.18 304.6 143.06 304.47 143.03 304.31C141.27 296.64 140.79 277.58 140.44 263.57C133.57 263.46 128.42 263.36 128.28 263.36C128.03 263.36 127.82 263.16 127.8 262.92C126.53 250.75 128.21 232.89 129.83 215.62C129.91 214.77 129.99 213.93 130.07 213.09C123.94 216.19 114.96 216.75 107.42 214.91C107.28 218.37 107.15 221.81 107.01 225.22C106.52 238.01 106.01 251.23 105.01 264.24C104.99 264.48 104.81 264.67 104.57 264.7C95.63 265.69 78.99 264.99 78.83 264.98C78.67 264.98 78.52 264.89 78.44 264.76C78.17 264.35 53.06 225.13 56.68 176.46C50.4 214.73 53.95 259.39 54.42 264.91C62.09 265.38 79.23 265.44 79.41 265.44C79.59 265.44 79.75 265.54 79.84 265.69L83.48 272.04C85.66 272.53 104.23 276.5 114.39 273.74C114.61 273.68 114.85 273.78 114.96 273.99C115.07 274.2 115.02 274.45 114.84 274.6C109.09 279.53 101.37 282 95.74 283.8C94.73 284.12 93.79 284.42 92.94 284.71C108.06 302.78 127.25 317.19 148.7 326.62C147.55 322.88 146.2 319.15 144.97 316.47C144.48 315.41 144.27 314.68 144.59 314.12C144.97 313.47 145.89 313.33 147.36 313.18C148.9 313.02 150.21 313.61 151.26 314.91C154.14 318.51 154.13 326.71 153.35 329.08C153.31 329.21 153.21 329.32 153.09 329.37C152.97 329.43 152.82 329.43 152.7 329.37C151.89 329.04 151.08 328.71 150.27 328.37L150.24 328.37ZM174.18 321.93C170.28 323.7 164.97 331.09 164.74 334.26C164.51 337.34 166.69 341.2 167.76 341.48C167.83 341.5 167.88 341.51 167.98 341.31C168.73 339.7 170.26 338.88 171.38 338.81C172.12 338.75 172.72 339.01 173.04 339.5C173.24 339.8 173.31 340.13 173.37 340.42C173.52 341.13 173.66 341.75 177.12 341.03C179.36 340.57 180.53 339.59 181.47 338.81C182.63 337.84 183.63 337 185.76 337.83C189.29 339.19 192.74 339.24 193.27 338.74C193.9 338.16 194.42 336.44 194.19 333.93C194.05 332.46 193.31 327.64 189.36 324.62C187.73 324.62 186.14 324.64 184.62 324.72C185.3 325.43 185.95 326.24 186.59 327.15C187.4 328.31 187.34 329.54 186.41 330.62C183.83 333.61 175.15 334.88 172.04 333.32C170.92 332.76 170.44 331.85 170.68 330.76C171.66 326.38 176.26 324.57 182.26 323.93C179.9 322.12 177.27 321.47 174.18 321.93ZM239.44 326.84C230.75 326.85 220.96 326.99 215.2 327.08L214.89 327.08C209.78 327.16 203.42 327.26 200.03 330.99C198.91 332.23 198.33 338.45 198.85 339.13C200.67 340.77 234.39 339.71 239.83 336.99C241.63 336.09 240.76 332.42 239.83 328.53C239.7 327.97 239.56 327.4 239.43 326.83L239.44 326.84ZM183.3 324.81C177.23 325.31 172.56 326.9 171.64 330.96C171.55 331.36 171.54 331.95 172.47 332.42C175.49 333.94 183.49 332.45 185.64 329.96C186.28 329.22 186.32 328.5 185.76 327.71C184.96 326.58 184.14 325.61 183.29 324.8L183.3 324.81ZM149.88 327.13C150.76 327.51 151.64 327.88 152.52 328.23C153.12 325.47 152.87 318.51 150.46 315.51C149.62 314.47 148.64 314.02 147.43 314.14C146.83 314.2 145.57 314.33 145.42 314.59C145.33 314.74 145.47 315.23 145.84 316.04C147.17 318.95 148.65 323.08 149.86 327.12L149.88 327.13ZM243 325.84C249.77 325.86 255.23 325.98 256.92 326.28C264.69 327.65 270.97 326.64 271.16 325.61C271.16 325.59 271.35 323.33 253.53 320.18C249.39 319.44 246.51 320.95 245.16 321.91C243.8 322.88 243.08 323.94 242.99 324.52C242.94 324.83 242.95 325.29 243 325.85L243 325.84ZM189.68 323.63C192.89 323.66 196.24 323.83 199.47 324C202.7 324.17 205.74 324.33 208.5 324.34L208.52 324.34C210.99 324.34 211.42 321.47 211.62 318.78C211.71 317.55 212.1 316.32 212.71 315.79C210.67 315.47 208.52 314.98 206.39 314.23C195.45 310.37 186.92 299.97 186.84 299.86C186.69 299.68 186.69 299.41 186.84 299.23C188.12 297.68 196.51 278.46 203.91 261.5C209.11 249.57 214.03 238.3 215.88 234.55C219.89 226.43 219.74 225.98 218.89 224.97C218.06 226.12 215.96 231.07 213.94 235.87C208.44 248.88 203.63 259.77 200.5 261.2C196.16 263.19 182.79 262.6 174.88 261.16C174.96 262.48 175.01 263.22 175.01 263.28C175.01 263.41 174.97 263.54 174.88 263.64C174.79 263.74 174.66 263.8 174.53 263.8C173.09 263.85 170.71 263.88 167.75 263.87C169.77 278.08 172.27 292.85 172.87 294.47C174 297.53 178.39 301.73 185.23 306.28C191.61 310.53 207.75 316.34 207.91 316.4C208.13 316.48 208.27 316.71 208.23 316.94C208.19 317.17 208 317.35 207.76 317.36C207.73 317.36 207.7 317.36 207.67 317.36C205.4 317.36 186.73 314.75 173.1 303.5C173.72 305.49 176.25 309.91 184.08 314.04C194.2 319.37 206.21 320.26 206.33 320.27C206.58 320.29 206.78 320.49 206.79 320.74C206.8 320.99 206.62 321.21 206.37 321.25L205.77 321.35C202.18 321.94 194.32 323.23 181.82 318.56C184.45 320.25 187.58 322.25 189.11 323.22C189.31 323.35 189.5 323.48 189.69 323.61L189.68 323.63ZM176.05 320.8C178.9 320.8 181.39 321.79 183.65 323.8C185 323.7 186.42 323.65 187.87 323.63C180.75 319.1 178.06 317.39 177.12 316.62L176.96 316.55L176.98 316.51C176.55 316.14 176.61 316.03 176.7 315.86C176.83 315.63 177.14 315.55 177.37 315.65C189.34 321.14 197.63 321.3 202.5 320.81C198.06 320.13 190.41 318.52 183.6 314.92C173.88 309.8 171.86 304.11 171.92 302.52C171.93 302.13 172.12 301.97 172.27 301.91C172.45 301.83 172.69 301.88 172.83 302C182.92 310.77 196.57 314.52 203.45 315.81C198.17 313.78 189.16 310.12 184.65 307.12C179.69 303.82 173.46 299 171.92 294.83C171.35 293.3 168.9 279.18 166.84 264.87C166.79 264.54 166.75 264.21 166.7 263.88C159.5 263.86 149.44 263.72 141.41 263.6C141.75 277.16 142.21 295.44 143.83 303.41C148.43 300.73 157.23 300.38 163.11 301.63C164.89 302.01 167.17 302.72 167.92 303.95C168.16 304.35 168.2 304.78 168.02 305.19C167.85 305.57 167.5 305.94 166.96 306.29C172.32 310.05 175.57 316.14 175.54 319.4C175.54 319.99 175.43 320.45 175.27 320.81C175.53 320.79 175.79 320.79 176.05 320.79L176.05 320.8ZM218.23 316.31C218.46 316.9 218.63 317.99 218.61 320.05C218.59 322.6 219.02 323.42 219.18 323.51C219.37 323.42 219.9 322.33 219.82 320.62C219.77 319.61 219.74 317.48 220.26 316.34C219.64 316.34 218.96 316.34 218.23 316.32L218.23 316.31ZM222.77 322.88C225.15 323.07 236.68 323.76 240.73 320.01C238.85 320.45 235.54 321.05 232.91 320.63C228.2 319.87 224.57 316.88 223.74 316.15C223.44 316.18 222.87 316.23 222.08 316.27C222.6 317.29 222.69 319.2 222.69 320.42L222.76 322.88L222.77 322.88ZM214.19 316C214.6 316.6 214.81 317.77 214.83 319.54C214.85 321.32 214.93 322.36 215.01 322.95C215.28 321.99 215.56 320.36 215.56 319.33C215.56 318.32 215.89 317 216.39 316.22C215.69 316.17 214.95 316.1 214.19 316.01L214.19 316ZM281.3 301.6C281.53 301.6 281.75 301.67 281.94 301.8C284.01 303.19 283.18 311.92 282.99 313.65C282.58 317.44 281.71 320.32 281.15 321.87C305.66 308.93 326.19 289.58 340.59 265.84C340.68 265.69 340.84 265.6 341.01 265.6L341.01 265.6L372.37 265.62C372.2 261.66 370.92 235.28 365.84 197.71C365.14 192.53 364.37 187.67 363.56 183.13C363.58 183.85 363.59 184.58 363.6 185.3C363.87 213.41 356.49 240.98 342.24 265.02C342.15 265.17 341.99 265.26 341.81 265.26L341.81 265.26L329.05 265.08C328.78 265.08 328.56 264.85 328.56 264.58L328.73 216.54C326.74 217.59 321.02 220.18 312.73 220.18C304.44 220.18 295.96 215.97 293.42 214.56C294.54 244.27 292.07 266.49 292.05 266.71C292.02 266.95 291.83 267.13 291.59 267.15C291.52 267.15 287.29 267.47 281.19 267.64C281 268.73 280.87 269.62 280.83 270.28C280.77 271.35 281.14 272.28 281.97 273.11C286.88 278.06 305.19 277.21 305.38 277.2C305.59 277.18 305.79 277.32 305.87 277.52C305.95 277.72 305.89 277.95 305.72 278.08C305.4 278.34 297.66 284.57 284.49 283.67C283.76 283.62 283.08 283.55 282.46 283.46C282.64 288.38 282.59 294.31 281.55 297.12C280.55 299.83 276.8 301.37 272.32 302.21C275.11 303.07 278.01 303.18 280.68 301.74C280.9 301.62 281.11 301.57 281.32 301.57L281.3 301.6ZM210.84 310.81C214.81 311.33 228.56 312.77 235.6 309.05C243.51 304.87 249.49 289.97 252.87 266.84C248.06 266.43 245.26 266.04 245.21 266.04C244.96 266.01 244.78 265.79 244.78 265.54C244.8 264.01 244.96 251.8 246.06 235.14C238.19 251.5 229.77 270.94 225.72 283.36C219.84 301.37 213.21 308.65 210.85 310.81L210.84 310.81ZM155.77 304.12C151.38 304.12 146.84 305.14 144.84 307.24C143.72 308.41 143.53 309.82 144.27 311.42C146.45 310.79 149.37 310.15 152.45 309.48C156.67 308.56 162.02 307.39 164.96 306.2C164.56 305.97 164.14 305.75 163.72 305.55C161.72 304.6 158.77 304.12 155.76 304.12L155.77 304.12ZM258.18 294.96C257.64 294.97 254.94 297.8 254.94 300.1C254.94 301.47 256.04 302.19 258.23 302.22C260.74 302.26 264.67 302.22 268.55 301.79C265.56 300.29 262.89 298.29 260.94 296.82C259.72 295.9 258.66 295.11 258.19 294.96L258.18 294.96ZM281.04 276.66C279.81 277.6 277.98 279.32 278.3 280.54C278.43 281.03 279.03 281.79 281.39 282.3C281.28 279.85 281.13 277.77 281.04 276.66ZM255.77 266.08C258.85 266.31 262.51 266.52 266.63 266.66C271.54 266.83 276.31 266.8 280.35 266.7C280.6 265.37 280.93 263.81 281.28 262.08C283.82 249.87 288.5 227.39 281.17 214.9C280.78 215.73 280.39 216.47 280.03 217.11C280.03 217.12 280.02 217.13 280.01 217.14C279.98 217.28 279.94 217.39 279.91 217.47C279.86 217.6 279.79 217.72 279.71 217.83C278.64 220.81 278.78 227.37 278.87 231.84C278.96 236.34 278.94 237.53 278.52 237.94C278.42 238.04 278.25 238.13 278.08 238.12C277.42 238.09 276.7 238.12 276 238.14C275.23 238.17 274.5 238.19 273.97 238.14C273.84 238.13 273.64 238.02 273.56 237.91C273.14 237.4 273.29 235.73 273.84 230.7C274.32 226.33 274.91 221 274.57 218.1C271.86 216.55 267.62 212.64 264.64 205.13C263.82 204.94 263.04 204.77 262.29 204.63C261.97 205.68 261.37 206.93 260.37 208.39C257.37 212.81 252.54 221.87 247.34 232.54C246.1 249.64 245.84 262.59 245.8 265.12C246.76 265.24 249.29 265.55 253.03 265.87C254.36 256.49 255.26 245.79 255.71 233.93C255.78 231.97 255.78 231.97 256.28 231.97C256.77 231.97 256.78 232.41 256.8 232.87C256.85 234.61 256.46 250.42 255.8 266.08L255.77 266.08ZM281.67 213.8C289.69 226.51 284.86 249.74 282.25 262.29C281.91 263.92 281.6 265.4 281.36 266.68C286.26 266.54 289.91 266.31 291.09 266.23C291.42 263.04 293.5 241.6 292.38 213.74C292.38 213.56 292.47 213.38 292.63 213.29C292.79 213.2 292.99 213.2 293.14 213.29C293.24 213.35 302.82 219.22 312.72 219.22C322.62 219.22 328.89 215.34 328.96 215.3C329.11 215.2 329.31 215.2 329.46 215.29C329.62 215.38 329.72 215.54 329.72 215.73L329.55 264.13L341.53 264.3C355.59 240.48 362.87 213.18 362.6 185.34C362.57 182.29 362.45 179.26 362.24 176.25C357.33 151.95 351.57 138.6 350.63 136.51C350.17 136.51 349.26 136.54 347.98 136.57C350.11 139.73 352.65 143.93 354.41 148.84C365.76 180.45 347.85 211.75 343.35 217.68C342.93 221.89 343.57 234.77 343.57 234.9C343.57 235.04 343.53 235.17 343.44 235.27C343.28 235.44 343.02 235.43 342.8 235.43C338.82 235.43 338.46 234.93 338.34 234.77C338.22 234.61 338.19 234.41 338.25 234.22C338.27 234.01 338.23 231.61 338.2 229.08C338.14 224.99 338.06 219.38 338.16 216.56C338.19 215.7 337.69 214.38 336.99 212.55C335.05 207.47 331.81 198.96 333.55 184.57L333.8 182.55C334.83 174.14 336.91 157.21 335.77 152.78C335.77 154.19 335.27 155.24 335.25 155.3C335.23 155.34 335.21 155.37 335.19 155.4C335.3 156.67 335.63 161.95 334.15 168.34C332.15 176.96 329.03 182.96 324.82 186.27C325.37 187.96 324 192.91 323.71 193.91C320.47 200.44 321.69 209.6 324.25 213.1C324.6 213.02 324.93 212.95 325.25 212.88C327.82 212.3 328.78 212.08 329.16 212.71C329.47 213.22 328.99 213.8 328.78 214.06C327.12 216.06 325.57 215.52 324.8 215.02C324.49 214.82 324.18 214.54 323.89 214.21C320.72 214.89 316.25 215.69 311.64 215.29C304.27 214.66 296.16 209.66 293.58 206.35C292.93 205.51 292.65 204.79 292.75 204.21C294.58 193.11 294.9 184.47 293.74 177.78C293.38 176.94 293.14 176.23 293.64 175.92C293.93 175.74 294.34 175.66 295.49 177.02C297.78 180.11 304.67 186 311.97 187.78C310.42 187.12 309.16 186.12 308.76 185.08C308.55 184.54 308.29 183.18 310.37 182.27C315.45 180.06 319.77 181.77 322.33 183.62C322.41 181.9 322.01 180.57 321.15 179.64C320.57 179.02 319.81 178.6 318.97 178.32C316.45 178.7 312.72 178.65 310.32 177.33L310.22 177.28C309.99 177.16 309.87 176.88 309.97 176.64C310.07 176.4 310.35 176.28 310.61 176.37C310.9 176.47 311.77 176.7 313.5 176.74L314.12 176.74C315.53 176.78 317.38 176.81 319.05 177.31C320.21 177.12 321.04 176.85 321.21 176.61C321.43 176.11 321.6 175.69 321.75 175.31L318.66 175.12C318.2 175.2 315.37 175.63 313.18 174.96C312.67 174.8 311.73 174.72 310.74 174.63C308.37 174.41 306.13 174.21 305.92 172.92C305.63 171.11 307.5 168.91 308.96 167.24C308.84 167 308.79 166.72 308.83 166.45C308.89 166.02 309.18 165.67 309.61 165.49C310.05 165.32 310.7 165.05 311.03 165.51C311.31 165.91 311.08 166.29 310.39 167.1C311.25 167.4 312.63 167.4 313.38 167.12C313.76 166.98 313.96 166.87 314.13 166.77C314.43 166.6 314.69 166.46 315.45 166.35C316.32 166.23 317.39 166.54 318.51 166.88C319.59 167.2 320.7 167.53 321.4 167.36C322.39 167.11 322.38 166.89 322.36 166.51C322.36 166.35 322.34 166.18 322.38 165.99C322.43 165.78 322.18 165.46 322.01 165.22C319.74 162.23 318.34 158.69 317.97 154.96C317.75 152.74 318.05 151.13 318.9 149.9C319.92 148.43 322.18 147.1 323.78 146.66C326.08 146.03 328.38 146.05 330.43 146.72C331.81 147.17 332.95 147.77 333.8 148.51C333.8 148.51 333.87 148.56 333.99 148.66L333.86 148.08C333.67 147.53 333.47 146.89 333.27 146.2C331.95 141.66 322.92 135.95 307.73 138.05L293.91 149.6C294.11 149.89 294.44 150.34 294.88 150.87C297.07 150.11 299.76 149.69 302.95 149.63C303.01 149.63 303.07 149.63 303.14 149.63C308.12 149.63 310.96 153.94 311.08 154.13C311.2 154.31 311.18 154.54 311.05 154.71C310.98 154.8 309.26 156.9 303.83 156.9C299.66 156.9 296.42 154.14 294.56 152.05C292.92 152.7 291.63 153.58 290.69 154.68C293.76 155.73 295.78 157.52 296.69 159.99C298.89 165.96 293.86 173.75 293.65 174.08C293.56 174.22 293.41 174.3 293.24 174.3L293.24 174.3C293.08 174.3 292.92 174.22 292.83 174.09C292.52 173.64 285.16 162.88 288.83 155.68C288.91 155.52 289 155.36 289.09 155.21C287.14 154.57 285.5 153.67 284.12 152.62C284.14 156.23 284.6 160.47 285.73 165.45C290.42 186.12 285.8 204.51 281.69 213.81L281.67 213.8ZM254.01 265.94C254.26 265.96 254.52 265.98 254.78 266C254.92 262.71 255.05 259.41 255.17 256.23C254.84 259.44 254.46 262.7 254.01 265.94ZM79.11 264C81.22 264.08 95.71 264.61 104.03 263.76C105.01 250.9 105.51 237.83 106 225.19C106.13 221.71 106.27 218.2 106.42 214.66C102.52 213.58 99.08 211.85 96.71 209.47C96.55 209.31 96.52 209.06 96.63 208.87C96.66 208.82 99.65 203.57 99.73 192.37C99.75 189.8 99.47 185.45 99.04 180.9C93.46 175.64 90 168.1 90 160.2C90 160.07 90.05 159.94 90.15 159.84C90.25 159.75 90.38 159.69 90.51 159.7C90.57 159.7 96.58 159.95 97.98 166.09C98.73 169.38 99.48 175.02 100 180.44C102.43 182.67 105.26 184.45 108.38 185.63C108.6 185.43 108.82 185.24 109.05 185.07C108.59 184.38 108.43 183.48 108.58 182.38C108.66 181.76 109.18 180.9 109.84 179.82C110.33 179.02 110.92 178.04 111.28 177.18C108.8 176.98 106.34 176.33 104.41 175.69C103.79 175.66 103.28 175.35 103.09 174.85C102.94 174.47 102.97 174.02 103.18 173.51C103.06 173.42 102.95 173.3 102.88 173.18C102.64 172.78 102.69 172.28 103.01 171.84C103.2 171.57 103.49 171.32 103.86 171.14C104.23 170.9 104.81 170.78 105.55 170.93L105.55 170.93L105.55 170.93L105.55 170.93L105.55 170.93L105.55 170.93L105.55 170.93L105.55 170.93L105.55 170.93L105.55 170.93L105.55 170.93L105.55 170.93L105.55 170.93L105.55 170.93L105.55 170.93L105.55 170.93L105.55 170.93L105.55 170.93L105.55 170.93L105.55 170.93L105.55 170.93L105.55 170.93L105.55 170.93L105.55 170.93L105.55 170.93L105.55 170.93L105.55 170.93L105.55 170.93L105.55 170.93L105.55 170.93L105.55 170.93L105.55 170.93L105.55 170.93C105.55 170.93 105.58 170.94 105.59 170.95L105.59 170.95L105.59 170.95L105.59 170.95L105.59 170.95L105.59 170.95L105.59 170.95L105.59 170.95L105.59 170.95L105.59 170.95L105.59 170.95L105.59 170.95L105.59 170.95L105.59 170.95L105.59 170.95L105.59 170.95L105.59 170.95L105.59 170.95L105.59 170.95L105.59 170.95L105.59 170.95L105.59 170.95L105.59 170.95L105.59 170.95L105.59 170.95C105.68 171.02 105.74 171.11 105.77 171.23C105.81 171.4 105.76 171.58 105.63 171.7L105.63 171.7L105.63 171.7C105.18 172.13 104.84 172.49 104.59 172.81C104.78 172.81 104.99 172.79 105.24 172.76C105.77 172.69 106.29 172.61 106.81 172.53C108.61 172.25 110.46 171.97 112.37 172.15C112.93 170.76 113.18 169.13 113.38 167.8C113.43 167.48 113.48 167.18 113.52 166.9C112.08 167.61 111.16 166.88 110.49 166.35C110.11 166.05 109.79 165.8 109.41 165.76C109.14 165.76 108.72 165.93 108.33 166.13C107.69 166.45 106.96 166.81 106.23 166.52C105.7 166.31 105.3 165.82 104.99 165C104.49 163.68 105.17 162.7 105.77 161.82C106.16 161.25 106.54 160.71 106.59 160.11C106.76 158.31 106.3 156.79 105.51 155.55C105.17 155.79 104.79 155.98 104.39 156.1C99.08 157.77 94.23 157.22 91.09 154.58C90.9 154.42 90.86 154.14 90.99 153.93C93.38 150.31 97.85 149.89 101.22 151.08C102.78 151.63 104.42 152.63 105.65 154.07C105.97 153.67 106.22 153.19 106.35 152.66C106.81 150.84 105.97 148.72 103.99 146.69C101.36 144 97.84 143.61 90.18 145.41C89.66 146.21 89.16 147.08 88.72 148.05C85.22 155.69 86.21 166.13 91.56 178.25C96.99 190.54 96.93 206.24 91.38 224.91C91.3 225.17 91.23 225.42 91.17 225.63C91.21 225.87 91.16 226.12 91.02 226.35C91.03 232.25 91.95 239.61 92.51 244.02C92.54 244.23 92.51 244.56 92.13 244.83C91.1 245.55 87.56 245.5 86.44 244.91C85.97 244.66 85.87 244.34 85.87 244.11C85.84 237.3 85.44 229.44 84.62 227.22C84.49 226.86 84.42 226.54 84.41 226.26C78.13 221.02 70.86 204.24 68.32 188.02C63.96 160.15 73.06 144.88 77.44 137.55C77.81 136.93 78.19 136.3 78.5 135.73C74.8 135.19 72.3 134.61 72.25 134.59C72.03 134.54 71.87 134.34 71.87 134.11C71.87 133.88 72.03 133.68 72.25 133.63C77.44 132.41 79.4 132.14 80.09 133.07C80.42 133.52 80.37 134.11 80.01 134.94C83.01 135.33 86.6 135.66 90.24 135.62C91.27 135.62 92.4 135.61 93.59 135.61C94.15 135.61 94.73 135.61 95.33 135.61C93.57 134.04 92.37 131.56 91.98 128.63C91.57 125.53 92.55 122.73 94.72 120.44C93.44 120.27 92.03 120.31 90.46 120.61C73.72 123.8 64.21 141.83 58.94 164.16C58.73 165.57 58.54 166.99 58.37 168.41C51.37 218.49 76.87 260.54 78.98 263.91L79.11 264ZM167.59 262.89C170.26 262.89 172.49 262.88 173.97 262.84C173.95 262.44 173.91 261.81 173.85 260.98C172.3 260.66 171.02 260.31 170.14 259.95C167.18 258.72 166.99 252.06 166.8 245.63C166.69 241.73 166.56 237.31 165.61 236.73C165.57 236.7 165.47 236.64 165.21 236.76C164.39 237.9 165.77 250.03 167.59 262.9L167.59 262.89ZM141.39 262.6C149.37 262.73 159.37 262.86 166.56 262.88C162.87 236.75 164.21 236.12 164.78 235.85C165.4 235.56 165.85 235.7 166.13 235.87C167.46 236.69 167.63 240.1 167.79 245.59C167.95 251.14 168.15 258.04 170.52 259.03C171.3 259.36 172.43 259.67 173.79 259.95C173.15 250.3 171.11 221.87 167.7 197.14C165.61 198.09 163.53 199.05 161.45 200.01C160.06 211.19 156.81 222.09 151.04 231.19C151.08 231.55 151.01 231.99 150.75 232.52C150.61 232.8 150.38 233.02 150.05 233.18C149.53 235.59 149.58 241.02 149.78 244.61C149.78 244.66 149.78 244.71 149.77 244.76C149.59 245.46 148.87 245.89 147.75 245.98C146.82 246.05 145.23 245.86 144.89 245.05C144.87 244.99 144.85 244.93 144.85 244.87C144.85 244.77 144.54 235.38 144.04 232.39C142.88 231.04 140.82 226.23 139.14 219.79C139 220.46 138.89 221.16 138.79 221.89C138 227.98 138.91 234.22 139.79 240.26C140.25 243.43 140.73 246.72 140.96 249.96C141.14 252.45 141.26 257.13 141.39 262.61L141.39 262.6ZM128.72 262.38C130.11 262.41 134.65 262.49 140.39 262.58C140.25 257.14 140.13 252.48 139.96 250.02C139.73 246.81 139.26 243.55 138.8 240.39C137.91 234.29 136.99 227.97 137.8 221.75C137.99 220.29 138.26 218.95 138.62 217.7C137.02 210.88 135.95 202.6 136.74 194.77C140.03 162.19 137.48 140.39 130.08 136.84C123.37 137.42 116.64 137.74 113.43 137.34C113.11 137.84 112.48 139.8 112.97 141.46C113.33 142.68 114.21 143.43 115.58 143.71C117.87 144.47 120.42 144.5 122.89 144.53C127.02 144.58 130.92 144.62 132.91 147.94L132.98 148.06C133.4 148.97 133.22 150.07 132.54 151.06C132.39 151.28 132.15 151.78 131.9 152.34C132.91 152.56 133.78 152.63 134.22 152.67C134.38 152.68 134.5 152.7 134.56 152.71C134.8 152.75 134.98 152.96 134.98 153.2C134.98 154.66 135.04 156.16 135.1 157.74C135.29 162.66 135.49 167.74 133.95 172.36C129.85 182.61 119.62 188.48 108.93 186.78C108.25 195.77 107.8 204.87 107.42 213.85C115.01 215.72 124.22 215.13 130.14 211.9C130.61 206.82 131.06 201.88 131.41 197.18C131.39 197.07 131.36 196.96 131.34 196.86C129.83 190.18 128.41 183.86 132.24 179.3C132.37 179.14 132.59 179.08 132.79 179.15C132.99 179.22 133.12 179.4 133.12 179.61C133.18 184.81 132.89 190.74 132.42 197.11C133.45 201.68 134.45 206.38 133.61 210.55C133.59 210.66 133.53 210.75 133.45 210.83C132.74 211.45 131.95 212.02 131.08 212.52C130.98 213.58 130.88 214.64 130.78 215.71C129.18 232.73 127.53 250.32 128.71 262.38L128.72 262.38ZM145.83 244.68C146.08 244.87 147.19 245.11 148.1 244.92C148.46 244.84 148.71 244.71 148.79 244.56C148.72 243.34 148.42 236.91 149 233.45C147.79 233.59 146.17 233.35 145.13 233.01C145.55 236.43 145.8 243.53 145.83 244.68ZM86.99 244.1C87.19 244.22 87.91 244.44 89.23 244.45C90.55 244.47 91.4 244.27 91.65 244.13C91.12 239.89 90.28 233.13 90.18 227.39C89.31 228 88.29 228.16 87.2 227.86C86.73 227.73 86.26 227.52 85.77 227.23C86.62 229.99 86.96 237.93 86.99 244.1ZM274.3 237.15C274.75 237.17 275.33 237.15 275.94 237.13C276.56 237.11 277.2 237.09 277.81 237.1C277.95 236.36 277.9 233.97 277.86 231.85C277.77 227.63 277.66 222.16 278.41 218.74C277.72 218.98 276.89 219.02 276.09 218.78C275.93 218.73 275.76 218.67 275.58 218.6C275.79 221.73 275.25 226.68 274.8 230.8C274.51 233.4 274.19 236.33 274.3 237.16L274.3 237.15ZM339.23 234.15C339.75 234.29 341.19 234.39 342.55 234.4C342.44 232.12 342.05 223.23 342.27 218.74C341.31 219.28 340.33 219.4 339.56 219.05C339.4 218.98 339.25 218.89 339.11 218.78C339.09 221.75 339.15 225.84 339.19 229.01C339.24 232.41 339.25 233.64 339.23 234.13L339.23 234.15ZM144.94 231.88C145.64 232.26 147.94 232.72 149.22 232.41C149.32 232.08 149.43 231.82 149.56 231.62C149.69 231.42 149.82 231.23 149.95 231.03C149.91 230.96 149.86 230.91 149.81 230.86C149.05 230.15 146.69 230.15 145.45 230.86C145.02 231.11 144.83 231.39 144.9 231.67C144.91 231.73 144.93 231.8 144.94 231.87L144.94 231.88ZM139.63 217.74C141.09 223.88 142.95 228.72 144.11 230.79C144.29 230.5 144.57 230.23 144.95 230.01C146.46 229.13 149.31 229.02 150.49 230.14C150.49 230.14 150.49 230.14 150.5 230.15C155.89 221.44 158.99 211.11 160.38 200.5C158.98 201.16 157.58 201.82 156.2 202.48C150.12 205.38 144.41 208.43 141.32 213.76C140.62 214.96 140.06 216.28 139.63 217.75L139.63 217.74ZM295.53 120.1C291.42 120.1 285.4 121.78 276.68 127.12C257.72 138.73 250.35 192.76 247.51 229.79C252.28 220.14 256.65 212.05 259.51 207.83C260.21 206.79 260.9 205.59 261.27 204.44C258.86 204 256.86 203.75 255.32 203.56C252.48 203.21 251.18 203.04 250.92 202.18C250.72 201.51 251.33 200.83 252.38 199.96C254.13 198.5 259.04 197.93 261.35 200.02C262.13 200.73 262.76 201.87 262.48 203.67C263.03 203.78 263.59 203.9 264.18 204.03C262.84 200.35 261.81 195.86 261.38 190.44C259.63 168.79 268.02 150.74 271.6 143.03C271.92 142.34 272.21 141.73 272.45 141.19C273.45 138.97 274.43 137.48 275.15 136.4C275.23 136.28 275.32 136.15 275.4 136.02C274.59 135.78 273.82 135.17 273.56 134.62C273.34 134.15 273.53 133.84 273.62 133.72C273.92 133.35 274.48 133.29 275.44 133.52C276.09 133.68 276.73 133.9 276.94 134.44C277.02 134.65 277.03 134.86 276.98 135.1C278.8 135.06 283.09 134.97 288.72 134.84C290.23 133.27 291.45 132.69 291.5 132.67C291.77 132.58 294.24 132.43 297.77 132.27C296.8 129.94 296.24 126.48 296.96 123.45C297.2 122.45 297.59 121.39 298.22 120.38C297.43 120.21 296.54 120.11 295.54 120.11L295.53 120.1ZM85.57 225.92C86.23 226.42 86.86 226.76 87.45 226.92C88.52 227.21 89.41 226.94 90.19 226.06C90.2 225.99 90.22 225.91 90.25 225.81C90.17 225.67 89.93 225.49 89.47 225.33C88.26 224.9 86.45 224.9 85.78 225.57C85.73 225.62 85.63 225.72 85.57 225.9L85.57 225.92ZM79.67 135.98C79.34 136.59 78.91 137.31 78.41 138.16C74.09 145.4 65.11 160.46 69.42 187.97C72.05 204.78 79.23 220.17 84.79 225.26C85 224.91 85.3 224.67 85.55 224.53C86.9 223.74 89.35 224.01 90.56 224.76C90.56 224.75 90.56 224.73 90.57 224.72C96.05 206.28 96.12 190.82 90.79 178.74C85.24 166.18 84.29 155.74 87.96 147.72C88.26 147.05 88.59 146.43 88.94 145.83C88.44 145.96 87.93 146.09 87.39 146.23C84.96 146.88 83.2 146.72 82.44 145.77C81.95 145.16 81.93 144.31 82.4 143.4C83.63 141.01 88.94 137.41 97.98 137.95C98.22 137.96 98.41 138.15 98.44 138.39C98.47 138.63 98.32 138.85 98.09 138.92C96.86 139.3 93.8 140.89 91.18 144.26C97.66 142.82 101.79 142.95 104.83 146.07C107.84 149.16 107.76 151.72 107.44 152.98C107.25 153.73 106.88 154.4 106.39 154.95C107.34 156.38 107.9 158.15 107.7 160.27C107.62 161.13 107.13 161.83 106.71 162.45C106.1 163.34 105.74 163.92 106.04 164.71C106.18 165.08 106.41 165.54 106.72 165.66C107.05 165.79 107.54 165.54 108.02 165.31C108.54 165.05 109.07 164.78 109.64 164.84C110.3 164.91 110.8 165.3 111.23 165.64C111.9 166.17 112.39 166.56 113.44 165.96C113.56 165.89 113.7 165.86 113.88 165.85C114.08 165.11 114.36 164.6 114.87 164.44C115.57 164.21 116.26 164.8 116.79 165.33C116.94 165.5 117.38 165.97 117.14 166.47C116.85 167.07 115.92 166.98 114.85 166.89C114.8 166.89 114.74 166.89 114.68 166.88C114.61 167.28 114.54 167.7 114.49 168.03C114.26 169.52 113.97 171.38 113.26 172.96C113.17 173.16 112.96 173.28 112.75 173.25C110.84 173.01 109.02 173.29 107.09 173.59C106.56 173.67 106.03 173.75 105.5 173.83C104.95 173.9 104.48 173.91 104.09 173.86C103.91 174.26 103.97 174.46 103.99 174.49C104.07 174.7 104.4 174.66 104.63 174.73C106.56 175.37 109.07 176.04 111.55 176.21C111.58 175.98 111.57 175.78 111.52 175.61C111.47 175.47 111.37 175.27 110.99 175.13C110.82 175.07 110.7 174.92 110.68 174.74C110.65 174.56 110.72 174.39 110.87 174.28C112.51 173 114.25 173.01 115.94 173.02C117.72 173.03 119.27 173.04 120.63 171.61C120.79 171.44 121.06 171.4 121.26 171.53C121.46 171.66 121.54 171.91 121.45 172.13C119.82 176.2 116.14 177.32 112.31 177.24C111.96 178.24 111.29 179.33 110.68 180.34C110.15 181.21 109.61 182.1 109.55 182.52C109.43 183.37 109.54 184.04 109.86 184.53C112.08 183.27 114.63 183.36 117 184.87C117.05 184.9 117.09 184.94 117.13 184.98L117.13 184.98L117.13 184.98L117.13 184.98L117.13 184.98L117.13 184.98L117.13 184.98L117.13 184.98L117.13 184.98L117.13 184.98L117.13 184.98L117.13 184.98L117.13 184.98L117.13 184.98L117.13 184.98L117.13 184.98L117.13 184.98L117.13 184.98L117.13 184.98L117.13 184.98L117.13 184.98L117.13 184.98C117.17 185.05 117.2 185.13 117.2 185.21L117.2 185.21L117.2 185.21L117.2 185.21L117.2 185.22L117.2 185.22L117.2 185.24L117.2 185.24C117.2 185.24 117.2 185.25 117.2 185.26C117.2 185.41 117.12 185.55 117 185.64C124.09 184.22 130.06 179.32 132.99 171.98C134.46 167.56 134.27 162.57 134.08 157.74C134.02 156.31 133.97 154.95 133.96 153.61C133.43 153.56 132.51 153.47 131.46 153.22C131.16 153.89 130.87 154.52 130.69 154.82C128.26 158.93 120.44 157.5 117.63 156.83L115.23 156.81C115.07 156.81 114.92 156.73 114.83 156.6C114.74 156.47 114.72 156.3 114.77 156.15C115.98 152.84 117.49 148.71 123.72 149.1C125.26 149.19 126.84 149.8 128.43 150.9C129.19 151.42 130.06 151.79 130.91 152.04C131.22 151.37 131.51 150.76 131.71 150.46C132.2 149.75 132.34 149.01 132.1 148.48L132.05 148.41C130.34 145.56 126.87 145.51 122.86 145.47C120.32 145.44 117.69 145.41 115.31 144.62C112.66 144.09 111.36 141.91 111.89 138.79C111.94 138.52 112.38 136.14 113.34 136.28C115.96 136.66 121.39 136.46 127.2 136.01C124.82 135.41 122.88 134.66 121.31 133.82C116.77 135.56 110.45 136.22 104.26 136.47C103.92 136.78 103.53 137 103.09 137.12C100.72 137.78 98.61 137.61 96.81 136.62C95.73 136.62 94.69 136.62 93.69 136.62C92.5 136.62 91.38 136.62 90.35 136.63C86.52 136.64 82.75 136.32 79.65 135.9L79.67 135.98ZM172.89 193.76C173.01 193.76 173.13 193.8 173.23 193.89C173.38 194.02 173.43 194.23 173.36 194.42C172.37 197.27 173.59 200.69 176.99 204.57C186.22 215.08 199.39 221.58 212.22 221.95C226.14 222.36 239.59 215.47 246.49 204.41C248.91 200.53 249.28 197.55 247.64 195.05C246.54 193.37 244.64 192.45 242.54 192.62C242.05 192.66 241.69 192.76 241.44 192.95C241.11 193.2 240.89 193.61 240.67 194.05C235.42 204.23 224.48 211.28 212.76 212.05C200.17 212.87 187.28 206.57 179.91 195.99C178.51 193.99 178.18 191.5 179.01 189.33C180.72 184.87 185.84 185.23 188.59 185.42C188.77 185.43 188.93 185.54 189.01 185.71C189.09 185.88 189.06 186.07 188.95 186.21C187.42 188.21 188.03 191.16 189.42 193.03C190.96 195.1 193.34 196.37 195.65 197.5C201.91 200.56 210.17 203.89 218.47 202.43C225.68 201.16 232.94 194.8 232.68 187.22C232.23 187.28 231.77 187.22 231.31 187.02C230.41 186.63 229.67 185.8 229.37 184.85C228.95 183.5 229.2 182.12 229.45 180.79L229.53 180.37C230.04 177.52 230.25 175.53 229.97 172.95C223.92 181.17 212.31 185 201.22 182.28C199.53 181.87 197.84 181.08 196.06 179.89C195.81 179.72 195.47 179.54 195.23 179.63C194.75 179.81 194.43 180.98 194.14 182.02C193.73 183.51 193.3 185.06 192.15 185.56C191.54 185.83 190.81 185.74 189.98 185.3C189.83 185.22 189.73 185.07 189.72 184.9C188.98 174.19 185.79 166.16 183.46 160.29C182.88 158.84 182.34 157.46 181.89 156.2C181.8 155.94 181.93 155.66 182.18 155.57C182.44 155.47 182.72 155.6 182.82 155.85C185.5 162.62 187.94 166.9 193.85 171.53C198.47 175.14 204.57 176.84 210.19 176.28C209.04 176.07 207.92 175.76 206.84 175.35C205.82 174.96 204.54 174.37 203.69 173.25C202.91 172.22 202.58 170.54 203.45 169.34C204.13 168.41 205.28 168.06 206.32 167.84C209.64 167.14 213.15 167.09 216.49 167.68C217.18 167.8 217.96 167.97 218.61 168.45C219.57 169.16 220.02 170.46 219.78 171.84C219.69 172.34 219.51 172.83 219.26 173.25C218.74 174.1 217.95 174.82 216.85 175.42C218.77 175.16 220.72 174.66 222.65 173.9C225.11 172.94 227 171.78 228.43 170.37C229.75 169.07 230.76 167.45 231.74 165.88C234.44 161.56 236.91 157.29 237.93 152.96C237.68 152.35 237.72 151.69 237.76 151.15L238.14 145.89C238.16 145.64 238.36 145.44 238.61 145.43C238.86 145.42 239.08 145.59 239.13 145.83C239.58 148.17 239.47 150.5 238.97 152.79C239.07 152.94 239.22 153.08 239.42 153.2C239.94 153.52 240.66 153.53 241.25 153.22C242.6 152.52 243.08 150.91 243.43 149.46C244.28 145.92 244.8 142.28 244.98 138.65C245.03 137.52 244.82 136.19 244.06 135.79C243.89 135.77 243.73 135.72 243.57 135.63C243.36 135.52 243.26 135.27 243.33 135.04C243.41 134.81 243.63 134.67 243.87 134.7C244.01 134.72 244.14 134.75 244.27 134.8C244.3 134.8 244.32 134.78 244.35 134.76C244.73 134.55 245.09 133.72 245.13 132.98C245.19 131.8 245.26 130.46 244.86 129.3C244.52 128.31 243.8 127.53 242.98 127.26C242.3 127.03 241.59 127.18 240.87 127.67C240.63 127.84 240.4 128.05 240.21 128.29C240.2 128.32 240.19 128.34 240.18 128.37C239.96 128.91 239.75 129.41 239.66 129.94C239.54 130.63 239.62 131.37 239.69 132.09L240.3 137.91C240.86 139.07 241.61 140.13 242.53 141.03C242.6 141.1 242.65 141.2 242.67 141.3C242.75 141.75 242.54 142.18 242.11 142.43C241.59 142.74 240.88 142.72 240.43 142.36C239.7 141.79 239.6 140.79 239.54 140.2L239.33 138.23C238.03 135.53 237.7 132.39 238.51 129.5C238.69 128.86 238.97 128.28 239.35 127.79C239.43 127.59 239.51 127.38 239.59 127.17C240.07 125.8 240.15 124.3 240.22 122.86C240.64 115.06 240.67 107.62 236.35 102.21C234.89 100.38 232.91 98.78 230.11 97.16C222.77 92.92 214.09 90.97 205.64 91.67C197.2 92.37 188.95 95.74 182.42 101.14C179.66 103.42 177.93 105.53 176.98 107.77C175.61 111.01 175.81 114.51 176.01 118.22C176.16 120.82 176.3 123.5 175.87 126.09C177.4 126.25 178.82 127.51 179.95 129.71C180.15 130.1 180.5 131.63 180.84 133.55C181.9 134.04 183.57 134.4 185.75 133.65C185.67 133.39 185.61 133.14 185.57 132.89C185.32 131.2 185.73 128.61 187.63 126.42C189.17 124.63 192.27 122.49 198.24 122.48L198.31 122.48C203.4 122.48 206.46 124.01 207.39 127.04C207.68 128 207.96 130.13 207.71 131.15L205.78 138.89C205.58 139.69 205.35 140.6 204.83 141.37C204.5 141.85 204.09 142.24 203.69 142.62C203.43 142.87 203.17 143.11 202.94 143.38C202.12 144.34 201.66 145.95 202.37 147.17C202.7 147.74 203.36 148.16 204.08 148.25C204.35 148.29 204.82 148.3 205.24 148.06C205.07 147.67 205.08 147.18 205.32 146.72C205.66 146.06 206.3 145.76 206.92 145.96C207.57 146.18 207.87 146.92 207.62 147.68C207.56 147.86 207.47 148.03 207.37 148.16C207.98 148.44 208.83 148.71 209.58 148.49C210.85 148.12 212.35 148.92 212.73 150.18C213.01 151.09 212.88 152.06 212.73 152.89L212.73 152.89C213.61 152.89 214.53 153.17 215.34 153.47L220.54 155.41C220.79 155.5 220.92 155.78 220.83 156.04C220.67 156.49 220.24 156.74 219.54 156.78C215.89 156.99 212.18 157.21 208.45 157.25C207.55 157.56 206.46 157.66 205.22 157.54C204.81 157.5 204.4 157.45 203.99 157.39C202.94 157.25 201.93 157.11 200.98 157.23C202.1 158.59 204.01 159.06 205.49 159.21C206.01 158.88 206.78 158.73 207.75 158.79L215.78 159.31C216.66 159.37 217.57 159.43 218.38 159.16C219.05 158.95 219.78 158.39 219.88 157.64C219.92 157.38 220.11 157.14 220.83 156.26C222.67 154.04 226.97 148.85 226.97 143.02C226.97 142.77 227.16 142.55 227.41 142.53C230.81 142.16 232.99 140.95 233.73 139.05C234.28 137.64 233.9 136.25 233.66 135.7L233.66 135.7C233.13 135.59 232.61 135.44 232.11 135.25C232.03 135.22 231.96 135.17 231.9 135.1C231.9 135.1 231.84 135.03 231.73 134.91C230.56 135.86 227.55 137.81 223.45 136.9C220.42 136.23 216.72 135.92 216.68 135.92C216.52 135.91 216.38 135.82 216.3 135.69C216.22 135.56 216.2 135.4 216.25 135.25C216.27 135.2 218.09 130.49 223.52 130.23C227.1 130.05 229.91 131.93 231.43 133.25C231.45 130.12 230.5 127.32 228.73 125.3C227.97 124.43 225.78 123.51 223.07 123.43C221.3 123.37 217.93 123.65 215.4 126.19C215.1 126.49 214.99 126.88 214.95 127.15L213.81 134.64C213.71 135.3 213.61 135.97 213.69 136.6C213.76 137.16 213.98 137.71 214.21 138.28C214.4 138.75 214.6 139.24 214.72 139.76C215.04 141.13 214.56 142.79 213.22 143.19C212.54 143.39 211.87 143.19 211.28 143.03C211.15 142.99 211.01 142.95 210.88 142.92C209.94 142.68 209.08 142.79 208.51 143.21C208.19 143.44 207.96 143.84 207.91 144.25C207.88 144.47 207.89 144.79 208.1 145.05C208.7 145.8 210.09 145.35 210.87 144.79C211.06 144.66 211.25 144.52 211.43 144.37C212.3 143.71 213.3 142.96 214.51 143.01C215.22 143.04 215.94 143.35 216.67 143.94C217.72 144.8 218.29 145.89 218.24 146.93C218.21 147.64 217.81 148.34 217.2 148.76C216.68 149.12 216.1 149.22 215.56 149.05C215.2 148.93 214.91 148.72 214.66 148.49C214.64 148.51 214.61 148.53 214.59 148.55C213.93 149.02 212.98 149 212.34 148.5C212.02 148.19 211.93 147.79 212.07 147.39C212.18 147.08 212.39 146.83 212.66 146.67L212.63 146.6C213.24 146.33 213.95 146.53 214.4 146.9C214.55 147.01 214.71 147.14 214.86 147.29L215.03 147.46C215.3 147.74 215.57 148 215.86 148.1C216.18 148.2 216.49 148.05 216.64 147.94C216.99 147.7 217.23 147.28 217.25 146.88C217.3 145.85 216.42 145.02 216.04 144.71C215.49 144.26 214.96 144.02 214.47 144C213.62 143.97 212.85 144.54 212.04 145.16C211.84 145.31 211.65 145.46 211.45 145.6C210.12 146.53 208.28 146.86 207.33 145.67C206.99 145.25 206.85 144.7 206.93 144.12C207.02 143.44 207.39 142.81 207.93 142.41C208.74 141.81 209.91 141.65 211.13 141.96C211.27 142 211.42 142.04 211.56 142.08C212.06 142.22 212.54 142.36 212.94 142.24C213.69 142.02 213.97 140.9 213.76 139.99C213.66 139.54 213.48 139.11 213.3 138.65C213.06 138.04 212.8 137.42 212.71 136.73C212.61 135.96 212.72 135.21 212.83 134.49L213.97 127C214.06 126.4 214.31 125.88 214.7 125.49C217.49 122.69 221.14 122.38 223.1 122.44C225.83 122.53 228.39 123.42 229.48 124.65C231.57 127.04 232.61 130.4 232.39 134.13C232.39 134.15 232.39 134.16 232.39 134.17C232.46 134.25 232.52 134.32 232.57 134.37C232.89 134.48 233.22 134.58 233.55 134.66C233.63 134.62 233.71 134.59 233.79 134.59L233.81 134.59C234.64 134.59 234.95 136.55 234.99 137.08C235.11 138.72 234.65 142.57 227.95 143.47C227.75 149.47 223.45 154.66 221.59 156.91C221.25 157.32 220.89 157.75 220.84 157.87C220.72 158.83 219.86 159.74 218.68 160.12C217.68 160.44 216.63 160.37 215.71 160.31L214.01 160.2C214.01 160.2 214.01 160.22 214.01 160.24C213.99 160.47 213.82 160.66 213.59 160.69C210.81 161.1 207.99 161.17 205.2 160.88C205.06 160.87 204.94 160.8 204.86 160.69C204.78 160.58 204.74 160.44 204.77 160.31C204.77 160.26 204.79 160.2 204.81 160.15C203.01 159.88 200.83 159.13 199.74 157.16C199.69 157.08 199.67 156.98 199.68 156.88C199.54 156.81 199.44 156.68 199.41 156.53C199.37 156.32 199.47 156.1 199.67 156C203.39 154.04 207.57 152.91 211.78 152.71C211.91 151.98 212.02 151.19 211.81 150.49C211.58 149.74 210.65 149.24 209.89 149.47C208.37 149.92 206.72 149 206.18 148.66C205.61 149.15 204.81 149.37 203.98 149.26C202.96 149.13 202.02 148.52 201.54 147.69C200.7 146.24 200.98 144.21 202.22 142.76C202.47 142.46 202.76 142.19 203.05 141.92C203.43 141.57 203.78 141.23 204.05 140.84C204.47 140.22 204.67 139.43 204.85 138.68L206.78 130.94C206.98 130.15 206.74 128.21 206.48 127.36C205.69 124.8 202.96 123.5 198.35 123.5L198.28 123.5C193.85 123.51 190.44 124.76 188.42 127.1C186.74 129.04 186.38 131.31 186.59 132.78C186.62 132.96 186.66 133.14 186.71 133.31C187.1 133.13 187.58 132.88 188.11 132.62C190.14 131.59 192.67 130.31 194.1 130.26C197.11 130.17 201.54 132.05 201.84 135.41C201.86 135.66 201.7 135.88 201.46 135.94C200.91 136.07 200.42 136.19 199.97 136.29C197.22 136.95 195.84 137.28 192.38 137.16C188.79 137.03 187.04 135.89 186.22 134.6C184.07 135.37 182.32 135.17 181.08 134.74C181.71 138.65 182.19 143.44 181.43 143.84C181.34 143.88 180.9 144.08 180.57 143.46C180.27 142.9 179.58 142.65 179.06 142.69C178.79 142.71 178.62 142.81 178.6 142.89C178.56 143 178.66 143.35 179.27 143.91C181.77 146.18 183.32 151.33 182.79 153.79C182.55 154.89 181.98 155.29 181.54 155.43C180.48 155.78 179.47 155.67 178.53 155.12C175.83 153.53 174.53 148.64 174 145.86C173.13 141.35 173.71 139.25 174.02 138.12C174.08 137.88 174.16 137.62 174.14 137.54C173.98 137.44 173.91 137.46 173.54 137.69C173.28 137.86 172.88 138.11 172.44 137.9C171.9 137.65 171.52 136.91 171.04 133.67C170.56 130.4 172.27 128.48 174.07 128.08C175.58 127.74 177.42 128.44 178.1 130.75C178.29 131.4 178.9 132.29 179.85 132.99C179.62 131.72 179.36 130.7 179.12 130.21C178.49 128.98 177.18 126.96 175.38 127.12C175.22 127.14 175.07 127.08 174.96 126.96C174.85 126.84 174.81 126.68 174.84 126.53C175.39 123.88 175.23 121.06 175.08 118.32C174.87 114.66 174.66 110.87 176.12 107.42C177.14 105.02 178.95 102.8 181.84 100.41C188.53 94.88 196.97 91.44 205.61 90.72C214.25 90 223.15 91.99 230.66 96.34C233.57 98.02 235.64 99.7 237.18 101.63C241.71 107.31 241.7 114.96 241.26 122.95C241.2 124.15 241.13 125.39 240.84 126.6C241.87 126.06 242.75 126.16 243.34 126.35C244.45 126.71 245.41 127.73 245.84 129.01C246.3 130.35 246.22 131.8 246.16 133.07C246.12 133.89 245.77 134.89 245.18 135.44C245.85 136.23 246.06 137.52 246 138.73C245.82 142.43 245.29 146.12 244.43 149.73C244.03 151.39 243.46 153.24 241.74 154.14C240.83 154.61 239.75 154.59 238.93 154.08C238.86 154.04 238.79 153.99 238.73 153.95C237.56 158.24 235.13 162.43 232.62 166.45C231.61 168.07 230.57 169.74 229.16 171.12C227.63 172.63 225.63 173.86 223.04 174.87C220 176.06 216.91 176.66 213.95 176.66L213.82 176.66C207.12 178.54 199.07 176.9 193.27 172.37C190.29 170.04 188.17 167.8 186.46 165.31C188.32 170.46 190.15 176.83 190.72 184.61C191.15 184.8 191.51 184.83 191.79 184.71C192.51 184.4 192.88 183.03 193.22 181.82C193.6 180.43 193.97 179.12 194.92 178.77C195.42 178.58 196.01 178.71 196.64 179.13C198.33 180.26 199.91 181 201.49 181.38C212.64 184.11 224.33 180.01 229.91 171.4C230.02 171.23 230.23 171.14 230.43 171.18C230.63 171.22 230.79 171.39 230.82 171.59C231.34 174.97 231.15 177.18 230.54 180.6L230.46 181.03C230.24 182.24 230.01 183.5 230.35 184.61C230.56 185.28 231.1 185.89 231.74 186.16C232.04 186.29 232.5 186.4 232.95 186.18C233.1 186.11 233.27 186.11 233.41 186.19C233.55 186.27 233.65 186.42 233.66 186.58C234.41 195.24 226.46 202.08 218.67 203.46C210.08 204.98 201.64 201.58 195.24 198.45C192.82 197.27 190.32 195.92 188.65 193.68C187.19 191.72 186.5 188.73 187.71 186.41C184.51 186.24 181.19 186.53 179.96 189.73C179.25 191.59 179.54 193.73 180.75 195.47C187.92 205.77 200.47 211.9 212.72 211.1C224.1 210.35 234.73 203.52 239.79 193.68C240.07 193.14 240.36 192.57 240.88 192.19C241.29 191.89 241.82 191.72 242.5 191.67C244.91 191.5 247.22 192.59 248.5 194.55C249.3 195.77 249.68 197.1 249.65 198.56C253.85 167.36 261.66 135.2 276.18 126.31C287.61 119.31 294.62 118.48 298.84 119.54C300.6 117.33 303.72 115.53 309.17 115.37C314.41 115.22 318.48 116.44 321.31 119.02C323.32 118.54 325.93 118.64 329.1 119.33C347.42 123.29 350.36 133.37 350.47 133.8C350.51 133.95 350.48 134.1 350.39 134.23C350.3 134.35 350.16 134.43 350 134.43C349.66 134.43 348.43 134.47 346.52 134.51C346.77 134.86 347.03 135.24 347.31 135.63C349.53 135.58 350.84 135.55 350.93 135.55C351.13 135.53 351.31 135.66 351.39 135.83C351.46 135.98 356.52 146.73 361.41 167.77C351.93 92.73 287.38 34.29 210.01 34.29C137.77 34.29 76.09 84.83 60.95 154.04C66.68 136.16 75.87 122.54 90.4 119.77C92.36 119.4 94.14 119.41 95.75 119.72C97.65 118.07 100.22 116.74 103.4 115.84C109 114.25 115.71 114.39 120.67 116.57C124.58 115.94 131.41 117.52 137.73 120.62C143.66 123.52 154.17 130.17 157.98 142.11C160.52 150.08 161.86 157.86 163.16 165.38C163.98 170.17 164.84 175.12 165.99 180.15C166.9 184.98 167.73 190.26 168.5 195.74C169.91 195.11 171.31 194.48 172.72 193.86C172.78 193.83 172.85 193.82 172.92 193.82L172.89 193.76ZM340.91 215.22C340.55 215.22 340.18 215.33 339.87 215.54C339.57 215.75 339.08 216.23 339.24 217.12C339.33 217.64 339.57 217.99 339.94 218.16C340.46 218.39 341.2 218.25 341.93 217.79C342.02 217.72 342.17 217.57 342.36 217.34C342.46 216.43 342.22 215.75 341.68 215.42C341.45 215.28 341.18 215.21 340.9 215.21L340.91 215.22ZM275.45 217.47C275.79 217.64 276.1 217.76 276.37 217.84C277.4 218.14 278.39 217.84 278.82 217.33C278.89 217.15 278.96 216.98 279.04 216.82C279.07 216.33 278.63 215.8 277.79 215.31C276.95 214.82 276.23 215.25 275.97 215.45C275.47 215.83 275.21 216.41 275.32 216.85C275.37 217.04 275.41 217.24 275.45 217.47ZM265.77 205.4C268.37 211.66 271.84 215.18 274.31 216.81C274.24 216.05 274.64 215.22 275.36 214.66C276.25 213.98 277.34 213.91 278.28 214.45C278.97 214.85 279.4 215.26 279.66 215.65C279.94 215.11 280.22 214.53 280.51 213.89C278.45 210.82 275.58 208.45 271.64 207.12C269.54 206.41 267.57 205.85 265.75 205.39L265.77 205.4ZM340.91 214.23C341.37 214.23 341.82 214.35 342.21 214.58C342.57 214.8 343.08 215.25 343.29 216.11C348.37 208.74 364.19 179.08 353.46 149.17C351.64 144.09 348.95 139.76 346.78 136.59C341.41 136.71 331.49 136.95 320.96 137.21C328.68 138.68 333.19 142.53 334.17 145.91C334.37 146.59 334.56 147.21 334.76 147.8L335.27 150.04C335.6 150.45 335.95 150.94 336.31 151.52C338.06 154.38 336.43 169.09 334.76 182.65L334.51 184.66C332.8 198.8 335.98 207.16 337.89 212.16C338.32 213.29 338.68 214.24 338.9 215.05C339.02 214.93 339.15 214.82 339.29 214.72C339.77 214.39 340.33 214.22 340.89 214.22L340.91 214.23ZM131.76 136.71C141.63 144.06 139.3 179.2 137.71 194.89C136.98 202.08 137.84 209.56 139.21 215.9C139.57 214.96 139.99 214.09 140.46 213.26C143.69 207.69 149.54 204.56 155.77 201.59C157.35 200.84 158.93 200.09 160.52 199.34C162.95 178.94 159.14 157.68 153.12 145.06C150.23 139 147.08 135.51 144.24 135.22C141.07 135.72 136.49 136.26 131.75 136.7L131.76 136.71ZM324.99 213.93C325.09 214.02 325.2 214.09 325.3 214.16C326.2 214.74 327.07 214.49 327.98 213.4C328.01 213.37 328.03 213.34 328.05 213.31C327.49 213.36 326.45 213.6 325.43 213.83C325.29 213.86 325.14 213.9 324.98 213.93L324.99 213.93ZM294.68 177.63C295.85 184.42 295.53 193.16 293.69 204.35C293.67 204.46 293.67 204.87 294.33 205.72C296.74 208.81 304.69 213.68 311.69 214.28C315.98 214.64 320.07 213.97 323.21 213.31C320.61 209.25 319.47 200.18 322.77 193.54C323.37 191.44 324.07 188.18 323.93 186.89C322.41 187.92 320.76 188.62 318.98 188.99C308.6 191.14 297.39 181.29 294.68 177.64L294.68 177.63ZM97.65 209.04C99.83 211.1 102.93 212.63 106.44 213.61C106.82 204.63 107.27 195.54 107.95 186.55C105.07 185.45 102.43 183.86 100.11 181.89C100.48 186.06 100.71 189.96 100.69 192.39C100.62 202.39 98.32 207.68 97.64 209.04L97.65 209.04ZM265.32 204.28C267.35 204.77 269.58 205.39 271.97 206.2C275.92 207.54 278.86 209.85 280.99 212.83C284.97 203.51 289.26 185.69 284.71 165.66C283.48 160.22 283.01 155.63 283.06 151.77C279.52 148.56 278.2 144.32 278.54 141.4C278.83 138.96 280.16 137.44 282.12 137.33C283.07 137.28 284.71 137.21 286.88 137.14C287.2 136.66 287.51 136.23 287.83 135.84C282.09 135.97 277.9 136.07 276.51 136.09C276.36 136.34 276.18 136.61 275.97 136.93C275.27 137.99 274.32 139.44 273.35 141.59C273.11 142.13 272.82 142.75 272.5 143.44C268.95 151.08 260.64 168.96 262.37 190.35C262.82 195.98 263.92 200.57 265.33 204.28L265.32 204.28ZM132.14 200.59C131.86 204.06 131.53 207.64 131.2 211.29C131.72 210.95 132.21 210.59 132.67 210.2C133.22 207.23 132.81 203.92 132.15 200.58L132.14 200.59ZM257.02 199.65C255.4 199.65 253.78 200.07 253.02 200.71C251.97 201.59 251.89 201.87 251.88 201.92C252.09 202.15 253.79 202.36 255.44 202.56C257 202.75 259.05 203.01 261.5 203.46C261.66 202.41 261.47 201.44 260.68 200.73C259.83 199.96 258.42 199.64 257.02 199.64L257.02 199.65ZM146.35 134.86C148.94 136.2 151.6 139.57 154.02 144.63C160.03 157.25 163.86 178.42 161.56 198.85C163.54 197.93 165.54 197.01 167.53 196.11C166.75 190.55 165.9 185.19 164.99 180.3C163.83 175.27 162.97 170.3 162.15 165.5C160.8 157.66 159.53 150.26 157.01 142.36C153.31 130.77 143.06 124.29 137.27 121.46C131.3 118.54 125.81 117.28 122.31 117.37C124.34 118.57 125.95 120.19 126.88 122.26C128.23 125.27 128.23 127.85 126.88 129.94C125.96 131.36 124.45 132.49 122.54 133.37C124.25 134.2 126.39 134.92 129.06 135.46C129.47 135.54 129.86 135.66 130.24 135.82C133.9 135.5 137.53 135.1 140.57 134.72C139.12 134.42 138.95 134.1 138.95 133.73C138.94 133.14 139.6 132.85 141.46 132.6C141.54 132.59 149.13 131.69 149.49 133.17C149.66 133.87 148.73 134.21 148.22 134.4C147.87 134.53 147.23 134.68 146.37 134.85L146.35 134.86ZM132.12 181.18C130.14 184.58 130.66 188.97 131.64 193.69C131.93 189.22 132.11 185.02 132.12 181.18ZM322.86 185.34C322.03 186.89 320.1 187.49 318.49 187.98C318.31 188.04 318.13 188.09 317.96 188.15C318.23 188.11 318.5 188.06 318.77 188.01C320.46 187.66 322.03 186.98 323.47 185.99C323.31 185.8 323.1 185.58 322.86 185.35L322.86 185.34ZM315.13 182.22C313.76 182.22 312.27 182.49 310.72 183.17C309.28 183.8 309.55 184.48 309.63 184.71C310.26 186.32 314.43 188.3 317.27 187.33C317.56 187.23 317.87 187.14 318.18 187.04C319.81 186.54 321.48 186.02 322.06 184.67C320.51 183.47 318.07 182.22 315.12 182.22L315.13 182.22ZM109.59 185.89C109.69 185.9 109.8 185.92 109.9 185.93C109.84 185.89 109.77 185.85 109.71 185.8C109.67 185.83 109.63 185.86 109.59 185.89ZM110.67 185.22C111.65 185.7 113.15 185.69 114.6 185.4C114.62 185.27 114.68 185.14 114.78 185.02C114.81 184.99 114.84 184.96 114.88 184.92C113.21 184.36 111.77 184.67 110.68 185.21L110.67 185.22ZM323.21 184.33C323.65 184.71 324 185.08 324.26 185.39C328.25 182.21 331.23 176.42 333.16 168.08C334.44 162.56 334.32 157.79 334.21 155.97C332.9 156.71 331.47 157.26 329.94 157.6C326.88 158.29 323.68 158.08 320.94 157.01C320.82 156.96 320.39 156.76 320.39 156.76C320.24 156.69 320.13 156.55 320.11 156.38C320.09 156.21 320.15 156.05 320.27 155.94C320.79 155.48 321.51 155.07 322.2 154.68C322.69 154.4 323.16 154.14 323.47 153.89C327.3 150.99 329.6 152.23 330.24 152.7C331.51 153.01 332.92 153.57 334.46 154.46C334.63 153.94 334.87 152.95 334.67 151.86L334.36 150.48C333.66 149.65 333.14 149.27 333.14 149.27C332.35 148.59 331.33 148.06 330.07 147.65C328.2 147.04 326.1 147.03 323.99 147.61C322.6 147.99 320.55 149.19 319.66 150.46C318.94 151.49 318.7 152.89 318.9 154.86C319.25 158.4 320.58 161.77 322.75 164.61C323.03 164.98 323.45 165.53 323.3 166.19C323.29 166.24 323.3 166.35 323.3 166.44C323.34 167.13 323.24 167.89 321.59 168.31C320.62 168.55 319.38 168.18 318.18 167.82C317.21 167.53 316.2 167.23 315.54 167.32C314.97 167.4 314.83 167.48 314.57 167.63C314.37 167.74 314.13 167.88 313.68 168.04C312.61 168.43 310.78 168.41 309.66 167.87C308.45 169.25 306.64 171.39 306.86 172.74C306.94 173.27 309.64 173.51 310.79 173.62C311.83 173.71 312.82 173.8 313.43 173.99C315.54 174.64 318.47 174.12 318.5 174.11C318.54 174.11 318.58 174.11 318.62 174.11L322.02 174.32C322.02 174.32 322.05 174.32 322.06 174.31C322.24 173.77 322.32 173.42 322.38 173.18C322.43 172.99 322.46 172.84 322.51 172.72C322.64 172.38 322.97 172.2 323.35 172.24C323.82 172.31 324.33 172.74 324.38 173.34C324.42 173.84 324.17 174.52 322.84 175.07C322.66 175.57 322.41 176.2 322.06 177C321.9 177.36 321.48 177.65 320.74 177.9C320.69 177.92 320.63 177.94 320.58 177.95C321.04 178.22 321.47 178.55 321.84 178.95C322.92 180.11 323.4 181.75 323.27 183.83C323.26 184.01 323.24 184.18 323.21 184.34L323.21 184.33ZM90.97 160.75C91.12 167.77 94.08 174.46 98.86 179.36C98.35 174.32 97.66 169.26 96.99 166.31C95.98 161.88 92.34 160.94 90.98 160.75L90.97 160.75ZM112.53 176.25C115.27 176.25 117.83 175.62 119.47 173.57C118.32 174.03 117.1 174.02 115.92 174.01C114.56 174.01 113.27 173.99 112.06 174.66C112.24 174.84 112.37 175.05 112.45 175.29C112.55 175.58 112.57 175.91 112.53 176.25ZM211.82 168.26C210.04 168.26 208.25 168.44 206.52 168.81C205.67 168.99 204.73 169.26 204.25 169.92C203.66 170.73 203.92 171.91 204.48 172.65C205.18 173.57 206.3 174.08 207.19 174.42C209.2 175.19 211.38 175.59 213.65 175.62C214.11 175.49 214.57 175.34 215.01 175.17C216.69 174.53 217.8 173.74 218.41 172.74C218.6 172.42 218.74 172.05 218.81 171.67C218.95 170.88 218.81 169.83 218.03 169.25C217.55 168.9 216.93 168.76 216.32 168.66C214.85 168.4 213.34 168.27 211.83 168.27L211.82 168.26ZM323.35 173.31C323.35 173.31 323.34 173.35 323.33 173.38C323.31 173.45 323.29 173.53 323.27 173.62C323.35 173.53 323.38 173.45 323.38 173.4C323.38 173.37 323.37 173.34 323.35 173.31ZM290 155.48C289.87 155.68 289.75 155.89 289.65 156.1C286.73 161.81 291.64 170.42 293.16 172.84C294.3 170.86 297.38 164.85 295.7 160.3C294.87 158.04 292.95 156.42 290.01 155.48L290 155.48ZM103.71 172.52C103.71 172.52 103.7 172.55 103.69 172.56C103.69 172.55 103.71 172.53 103.72 172.52C103.72 172.52 103.72 172.52 103.71 172.52ZM114.89 165.9C114.89 165.9 114.91 165.9 114.92 165.9C115.21 165.93 115.68 165.95 116.01 165.96C115.4 165.35 115.17 165.38 115.17 165.38C115.07 165.41 114.98 165.61 114.89 165.89L114.89 165.9ZM321.58 156.19C322.37 156.48 323.2 156.69 324.06 156.82C323.84 156.55 323.65 156.2 323.54 155.76C323.48 155.53 323.46 155.29 323.48 155.06C323.23 155.21 322.97 155.36 322.69 155.52C322.31 155.73 321.93 155.95 321.58 156.18L321.58 156.19ZM327.83 153.39C326.67 153.39 325.74 153.67 325.12 154.13C324.81 154.36 324.31 154.85 324.49 155.53C324.83 156.85 326.08 156.87 327.43 156.77L327.59 156.77C328.14 156.72 329.69 156.12 330.1 155.17C330.31 154.7 330.19 154.19 329.76 153.62C329.06 153.47 328.41 153.39 327.83 153.39ZM331.08 153.99C331.3 154.64 331.19 155.18 331.02 155.57C330.87 155.91 330.64 156.22 330.36 156.48C331.53 156.16 332.63 155.72 333.65 155.15C332.75 154.65 331.88 154.27 331.07 153.99L331.08 153.99ZM201.71 156.1C203.89 156.25 206.09 156.31 208.28 156.29C208.78 156.09 209.24 155.79 209.58 155.35C209.73 155.16 209.85 154.94 209.97 154.73C210.15 154.41 210.34 154.08 210.6 153.79C207.54 154.07 204.52 154.86 201.72 156.1L201.71 156.1ZM212.73 153.91C212.23 153.91 211.78 154.03 211.43 154.35C211.19 154.57 211.01 154.88 210.82 155.21C210.68 155.46 210.53 155.71 210.36 155.94C210.28 156.05 210.19 156.16 210.09 156.26C213.01 156.19 215.93 156.03 218.8 155.86L214.98 154.43C214.27 154.16 213.46 153.91 212.73 153.91ZM92.19 154.2C96.26 157.26 101.91 155.96 104.2 155.24C104.5 155.15 104.78 155.01 105.03 154.83C103.92 153.51 102.42 152.6 101 152.1C98.11 151.08 94.33 151.36 92.19 154.19L92.19 154.2ZM123.1 151C125.68 151 126.65 151.94 128.56 153.82L129.05 154.3C129.24 154.48 129.25 154.78 129.08 154.98C128.72 155.4 128.32 155.74 127.87 156.02C128.7 155.66 129.39 155.13 129.83 154.37C129.97 154.13 130.22 153.58 130.48 153.01C129.59 152.73 128.66 152.34 127.85 151.77C126.41 150.77 125 150.23 123.64 150.14C118.5 149.83 117.08 152.79 115.93 155.88L116.33 155.88C116.33 155.88 116.36 155.84 116.37 155.82L116.49 155.67C119.1 152.56 121.32 150.99 123.08 150.99L123.1 151ZM117.77 155.9L124.1 155.95C125.81 155.95 127.06 155.56 128.01 154.67L127.87 154.53C126.04 152.74 125.28 151.99 123.1 151.99C122.15 151.99 120.44 152.68 117.66 155.87C117.7 155.87 117.73 155.89 117.77 155.9ZM295.53 151.66C297.31 153.56 300.21 155.88 303.77 155.88C307.54 155.88 309.32 154.81 309.94 154.31C309.19 153.34 306.74 150.6 303.06 150.6C303.01 150.6 302.95 150.6 302.9 150.6C300 150.66 297.54 151.02 295.52 151.66L295.53 151.66ZM173.91 136.48C174.16 136.48 174.43 136.56 174.71 136.78C175.24 137.19 175.08 137.76 174.92 138.37C174.63 139.42 174.1 141.38 174.92 145.66C175.77 150.1 177.25 153.24 178.98 154.25C179.67 154.66 180.39 154.73 181.18 154.47C181.46 154.38 181.66 154.07 181.77 153.56C182.24 151.36 180.76 146.63 178.55 144.62C177.51 143.67 177.47 142.97 177.61 142.54C177.78 142.05 178.27 141.73 178.93 141.67C179.52 141.63 180.25 141.8 180.81 142.26C180.8 140.63 180.47 137.14 180.02 134.28C178.41 133.41 177.4 132.04 177.09 131.02C176.55 129.21 175.21 128.81 174.22 129.04C172.86 129.34 171.57 130.87 171.96 133.52C172.34 136.06 172.62 136.76 172.76 136.95C172.81 136.92 172.89 136.87 172.94 136.84C173.16 136.7 173.49 136.49 173.9 136.49L173.91 136.48ZM284.07 151.35C285.53 152.58 287.36 153.63 289.61 154.34C290.62 153.04 292.03 152 293.83 151.23C293.18 150.42 292.81 149.83 292.76 149.74C292.63 149.53 292.68 149.26 292.86 149.1L306.68 137.56C299.11 137.76 292.17 137.95 287.46 138.11C285.79 140.85 284.23 145.07 284.07 151.35ZM286.24 138.15C284.4 138.21 283 138.27 282.15 138.31C280.72 138.39 279.73 139.58 279.51 141.5C279.22 144 280.27 147.55 283.08 150.42C283.33 144.82 284.68 140.87 286.24 138.14L286.24 138.15ZM213.29 147.52C213.29 147.52 213.25 147.52 213.23 147.52C213.17 147.52 213.1 147.58 213.05 147.64C213 147.71 212.99 147.77 212.99 147.78C213.2 147.93 213.58 147.96 213.88 147.82C213.88 147.8 213.86 147.78 213.83 147.75C213.82 147.73 213.8 147.72 213.79 147.71C213.6 147.58 213.44 147.52 213.29 147.52ZM206.24 147.64C206.29 147.64 206.34 147.64 206.4 147.67C206.54 147.71 206.66 147.4 206.66 147.4C206.71 147.24 206.73 146.98 206.58 146.94C206.37 146.87 206.19 147.2 206.18 147.21C206.12 147.33 206.07 147.52 206.11 147.66C206.15 147.65 206.19 147.64 206.23 147.64L206.24 147.64ZM95.75 138.91C88.51 139.01 84.28 141.9 83.26 143.88C83.1 144.2 82.87 144.78 83.19 145.17C83.57 145.64 84.79 145.92 87.11 145.29C88 145.05 88.86 144.83 89.68 144.63C91.62 141.79 93.93 139.95 95.75 138.91ZM240.54 140.28C240.6 140.82 240.71 141.36 241.04 141.62C241.17 141.72 241.43 141.72 241.6 141.62C241.62 141.61 241.63 141.6 241.64 141.59C241.24 141.18 240.87 140.74 240.54 140.29L240.54 140.28ZM289.16 135.81C288.83 136.18 288.48 136.61 288.13 137.1C302.25 136.65 333.98 135.89 346.08 135.61C345.8 135.21 345.54 134.84 345.29 134.49C334.11 134.75 305.94 135.42 289.16 135.81ZM187.1 134.2C187.95 135.4 189.72 136.06 192.37 136.16C195.69 136.28 196.95 135.98 199.69 135.32C200.02 135.24 200.36 135.16 200.74 135.07C200.18 132.77 196.81 131.15 194.09 131.25C192.88 131.29 190.36 132.57 188.51 133.5C187.98 133.77 187.5 134.01 187.1 134.2ZM217.46 135.02C218.71 135.14 221.36 135.45 223.64 135.96C227.19 136.75 229.89 135.09 230.99 134.24C229.67 133.04 226.95 131.11 223.56 131.25C219.9 131.43 218.11 133.87 217.46 135.03L217.46 135.02ZM96.01 120.75C93.72 122.91 92.66 125.61 93.06 128.59C93.47 131.7 94.86 134.24 96.86 135.56C96.93 135.61 97 135.65 97.08 135.7C99.23 135.69 101.51 135.66 103.81 135.57C104.7 134.47 104.96 132.27 104.39 129.81C103.64 126.62 101.12 122 96.02 120.76L96.01 120.75ZM96.92 119.97C101.47 121.36 104.35 125.3 105.35 129.58C105.91 131.99 105.77 134.11 105.03 135.52C110.56 135.27 116.1 134.67 120.22 133.26C115.7 130.41 114.81 126.84 114.68 125.05C114.42 121.57 116.29 118.16 119.09 116.96C114.5 115.32 108.62 115.33 103.63 116.75C100.9 117.52 98.65 118.63 96.92 119.97ZM274.56 134.37C274.83 134.66 275.4 135.05 275.9 135.1C275.97 134.96 276 134.85 275.98 134.8C275.98 134.8 275.9 134.65 275.17 134.48C274.89 134.41 274.69 134.39 274.55 134.38L274.56 134.37ZM74.79 134.19C75.9 134.4 77.37 134.66 79.08 134.9C79.35 134.33 79.49 133.91 79.38 133.76C79.09 133.36 76.79 133.76 74.79 134.19ZM298.24 133.3C294.35 133.47 291.83 133.59 291.76 133.61C291.74 133.61 291.08 133.96 290.16 134.79C292.94 134.73 296 134.65 299.22 134.58C298.89 134.29 298.55 133.85 298.24 133.3ZM303.83 133.06C303.47 133.66 303.06 134.15 302.61 134.5C308.46 134.36 314.69 134.22 320.65 134.08C320.1 133.75 319.5 133.24 318.9 132.48C313.65 132.67 308.34 132.88 303.83 133.06ZM140.6 133.73C141.22 133.86 142.3 134.04 144.19 134.22C146.01 133.94 147.32 133.68 147.85 133.48C147.9 133.46 147.95 133.44 148 133.42C146.4 133.19 142.38 133.36 140.6 133.72L140.6 133.73ZM299.37 133.25C299.6 133.6 299.83 133.84 300.03 133.95C300.61 134.26 301.16 134.25 301.72 133.92C302.03 133.73 302.33 133.46 302.6 133.12C301.46 133.17 300.37 133.21 299.37 133.26L299.37 133.25ZM325.56 132.25C325.46 132.95 325.12 133.55 324.63 133.98C332.7 133.79 339.94 133.62 344.59 133.51C344.2 132.97 343.88 132.51 343.63 132.11C342.35 131.83 334.65 131.97 325.56 132.25ZM320.18 132.43C321.15 133.43 322.13 133.78 322.91 133.69C323.73 133.6 324.36 133.05 324.55 132.28C323.12 132.33 321.66 132.37 320.18 132.42L320.18 132.43ZM338.76 130.99C344.1 130.99 344.25 131.24 344.38 131.45C344.71 131.97 345.21 132.67 345.79 133.49C347.37 133.45 348.56 133.42 349.25 133.41C348.29 131.19 343.97 123.53 328.86 120.26C326.14 119.67 323.88 119.52 322.11 119.82L322.11 119.82C325.64 123.74 325.77 129.01 325.65 131.23C331.87 131.06 336 130.99 338.75 130.99L338.76 130.99ZM120.54 117.55C120.24 117.61 119.96 117.68 119.72 117.77C117.17 118.7 115.44 121.8 115.68 124.97C115.81 126.68 116.7 130.13 121.42 132.81C123.49 131.96 125.1 130.85 126.03 129.41C127.2 127.6 127.18 125.39 125.96 122.67C124.93 120.38 122.99 118.69 120.54 117.54L120.54 117.55ZM299.21 120.65C298.53 121.64 298.13 122.69 297.9 123.67C297.15 126.82 297.89 130.2 298.81 132.21C300.19 132.15 301.7 132.08 303.29 132.02C303.96 130.65 304.37 128.78 304.37 126.83C304.37 125.54 303.62 122.92 300.79 121.33C300.33 121.07 299.81 120.84 299.22 120.65L299.21 120.65ZM299.85 119.82C300.37 120.01 300.84 120.23 301.26 120.46C304.09 122.04 305.35 124.79 305.35 126.82C305.35 128.71 304.99 130.52 304.38 131.96C308.87 131.78 313.8 131.6 317.95 131.46C318.04 131.46 318.13 131.46 318.21 131.46C317.77 130.72 317.34 129.82 316.94 128.71C316.35 127.05 315.77 123.29 317.87 120.9C318.47 120.22 319.23 119.69 320.16 119.32C317.54 117.19 313.86 116.18 309.16 116.32C304.35 116.46 301.51 117.95 299.85 119.82ZM320.99 120.07C320 120.38 319.2 120.88 318.61 121.55C316.37 124.11 317.85 128.33 317.87 128.37C318.33 129.64 318.83 130.64 319.37 131.41C321.27 131.35 323.03 131.3 324.66 131.25C324.77 129.26 324.69 124.14 321.39 120.47C321.26 120.33 321.13 120.19 321 120.06L320.99 120.07Z" fill="#000000" fill-rule="nonzero" opacity="1" stroke="none"/>
</g>
</svg>
