<svg xmlns="http://www.w3.org/2000/svg" x="42" y="42" viewBox="0 0 46 46">
  <style type="text/css">
      .st0{fill:#6100ED;stroke:#6100ED;stroke-width:2;}
  </style>
  <path id="closeIconDark" class="st0" d="M25.2,23.1L43.5,4.9c0.6-0.6,0.6-1.7,0-2.3c-0.6-0.6-1.7-0.6-2.3,0L23,20.8L4.7,2.6
      C4.1,2,3.1,2,2.4,2.6c-0.6,0.6-0.6,1.7,0,2.3l18.2,18.2L2.4,41.4c-0.6,0.6-0.6,1.7,0,2.3c0.3,0.3,0.7,0.5,1.1,0.5s0.8-0.2,1.1-0.5
      L23,25.4l18.2,18.2c0.3,0.3,0.7,0.5,1.1,0.5s0.8-0.2,1.1-0.5c0.6-0.6,0.6-1.7,0-2.3L25.2,23.1L25.2,23.1z"/>
</svg>
