<?xml version="1.0" encoding="UTF-8"?>
<svg height="100%" stroke-miterlimit="10" width="100%" xml:space="preserve" xmlns="http://www.w3.org/2000/svg">
    <path id="toggleFilter1" d="M5.00533 5.07443L0.755357 5.07443C0.341136 5.07443 0.00535659 5.41013 0.00535659 5.82443C0.00535659 6.23863 0.341136 6.57443 0.755357 6.57443L5.00533 6.57443L6.50533 6.57443L10.7553 6.57443C11.1695 6.57443 11.5053 6.23863 11.5053 5.82443C11.5053 5.41013 11.1695 5.07443 10.7553 5.07443L6.50533 5.07443L5.00533 5.07443Z" fill="#000000" fill-rule="evenodd" opacity="1" stroke="none"/>
    <path id="toggleFilter2" d="M6.48413 0.807783C6.48413 0.393563 6.14833 0.0577828 5.73413 0.0577828C5.31993 0.0577828 4.98413 0.393563 4.98413 0.807783L4.98413 5.05773L4.98413 6.55773L4.98413 10.8077C4.98413 11.222 5.31993 11.5577 5.73413 11.5577C6.14833 11.5577 6.48413 11.222 6.48413 10.8077L6.48413 6.55773L6.48413 5.05773L6.48413 0.807783Z" fill="#000000" fill-rule="evenodd" opacity="1" stroke="none"/>
</svg>
