<?xml version="1.0" encoding="UTF-8" standalone="no"?>
<!DOCTYPE svg PUBLIC "-//W3C//DTD SVG 1.1//EN" "http://www.w3.org/Graphics/SVG/1.1/DTD/svg11.dtd">
<!-- Created with Vectornator (http://vectornator.io/) -->
<svg height="100%" stroke-miterlimit="10" style="fill-rule:nonzero;clip-rule:evenodd;stroke-linecap:round;stroke-linejoin:round;" version="1.1" viewBox="0 0 8.82875 18" width="100%" xml:space="preserve" xmlns="http://www.w3.org/2000/svg" xmlns:xlink="http://www.w3.org/1999/xlink">
<defs/>
<g id="Untitled">
<path d="M3.93869 6.03171C4.57294 6.03171 5.08668 6.12685 5.47992 6.31713C5.06131 6.5962 4.80761 6.93235 4.71882 7.32558C4.63002 7.71882 4.4778 7.94398 4.26216 8.00106C4.15433 8.0296 4.04651 8.04387 3.93869 8.04387C3.83087 8.04387 3.72304 8.0296 3.61522 8.00106C3.39958 7.94398 3.24736 7.71882 3.15856 7.32558C3.06977 6.93235 2.82241 6.5962 2.41649 6.31713C2.79704 6.12685 3.30444 6.03171 3.93869 6.03171ZM3.93869 8.54334C4.25581 11.4736 4.42072 13.37 4.4334 14.2326C4.4208 16.2115 4.25163 17.201 3.9259 17.201C3.92383 17.201 3.92175 17.2009 3.91966 17.2008C3.91765 17.2009 3.91565 17.201 3.91366 17.201C3.60046 17.201 3.43755 16.2115 3.42495 14.2326C3.43763 13.37 3.60254 11.4736 3.91966 8.54334L3.93869 8.54334ZM0 0C0.55814 0.73573 0.86258 1.43975 0.913319 2.11205C0.964059 2.78436 1.04017 3.3203 1.14165 3.71987C1.24313 4.11945 1.46195 4.46829 1.7981 4.76639C2.13425 5.06448 2.5814 5.34672 3.13953 5.61311C2.22622 5.7907 1.76956 6.0444 1.76956 6.37421C1.76956 6.51374 1.8203 6.62791 1.92178 6.7167C2.30233 6.7167 2.57822 7.00211 2.74947 7.57294C2.92072 8.14376 3.13954 8.42918 3.40592 8.42918C3.41861 8.55603 3.30761 9.40275 3.07294 10.9693C2.83827 12.5359 2.77801 14.2833 2.89218 16.2114C3.0444 17.3911 3.38689 17.9873 3.91966 18C4.4778 17.9873 4.82664 17.3911 4.96617 16.2114C5.09302 14.2833 5.03911 12.5359 4.80444 10.9693C4.56977 9.40275 4.45243 8.55603 4.45243 8.42918C4.7315 8.42918 4.95666 8.14376 5.12791 7.57294C5.29915 7.00211 5.57505 6.7167 5.9556 6.7167C6.05708 6.62791 6.10782 6.51374 6.10782 6.37421C6.10782 6.0444 5.65116 5.7907 4.73784 5.61311C5.11839 5.41015 5.39112 5.2611 5.55603 5.16596C5.60652 5.13683 5.6582 5.10443 5.71107 5.06876L5.71107 5.06876C6.72333 5.42941 7.58496 6.06118 8.29598 6.96406L8.82875 6.73573C8.09665 5.81216 7.20204 5.1411 6.14492 4.72255L6.14492 4.72255C6.44319 4.43055 6.64012 4.09632 6.73573 3.71987C6.83721 3.3203 6.91015 2.78436 6.95455 2.11205C6.99894 1.43975 7.3129 0.73573 7.89641 0L7.83932 0C7.48414 0.367865 7.18605 0.684989 6.94503 0.951374C6.70402 1.21776 6.49789 1.77907 6.32664 2.63531C6.15539 3.49154 5.79704 4.04334 5.25159 4.2907C5.20476 4.31193 5.15878 4.33291 5.11364 4.35363L5.11364 4.35363C4.23743 4.00638 3.67453 3.61436 3.42495 3.17759C3.12051 2.64482 3.13319 2.20402 3.463 1.85518C3.72214 1.58109 3.98911 1.44405 4.2639 1.44405C4.33885 1.44405 4.41438 1.45424 4.49049 1.47463C4.84567 1.56977 5.05497 1.77907 5.11839 2.10254C5.18182 2.426 5.08351 2.64165 4.82347 2.74947C4.76889 2.7721 4.71725 2.78342 4.66854 2.78342C4.48516 2.78342 4.34336 2.62305 4.24313 2.30233L3.78647 2.30233C3.78647 2.5814 3.87844 2.80973 4.06237 2.98732C4.2463 3.16491 4.45243 3.2537 4.68076 3.2537C4.93446 3.2537 5.15011 3.17125 5.3277 3.00634C5.50529 2.84144 5.59408 2.57505 5.59408 2.20719C5.59408 1.83932 5.47357 1.53805 5.23256 1.30338C4.99789 1.07489 4.65197 0.960637 4.19482 0.960637C4.18246 0.960637 4.17002 0.960721 4.15751 0.960888C3.68182 0.96723 3.28224 1.22093 2.95877 1.72199C2.63531 2.22304 2.65433 2.80338 3.01586 3.463C3.28247 3.94945 3.77157 4.34621 4.48316 4.65329L4.48316 4.65329C4.28257 4.75268 4.10742 4.84428 3.95772 4.92812C3.61522 4.75053 3.17125 4.53806 2.62579 4.2907C2.08034 4.04334 1.72199 3.49154 1.55074 2.63531C1.37949 1.77907 1.17336 1.21776 0.932347 0.951374C0.691332 0.684989 0.399577 0.367865 0.0570821 0L0 0Z" fill="#ffffff" fill-rule="nonzero" opacity="1" stroke="none"/>
</g>
</svg>
