<?xml version="1.0" encoding="UTF-8" standalone="no"?>
<svg height="100%" stroke-miterlimit="10" style="fill-rule:nonzero;clip-rule:evenodd;stroke-linecap:round;stroke-linejoin:round;" version="1.1" viewBox="0 0 27.4795 18" width="100%" xml:space="preserve" xmlns="http://www.w3.org/2000/svg">
<clipPath id="ArtboardFrame">
<rect height="18" width="27.4795" x="0" y="0"/>
</clipPath>
<g clip-path="url(#ArtboardFrame)" id="Untitled">
<path d="M9.09139 2.06181C8.92452 2.06181 8.81438 2.08851 8.76098 2.14191C8.71425 2.19531 8.65084 2.22201 8.57074 2.22201L8.57074 2.31213L8.71091 2.33215C8.81445 2.43569 8.95213 2.48745 9.12395 2.48745C9.25123 2.48745 9.39724 2.45905 9.56198 2.40224L9.81229 2.47233L9.83232 2.2921L9.61204 2.27208C9.39844 2.15193 9.22489 2.08184 9.09139 2.06181ZM10.4028 0.459318C10.7108 0.459318 11.068 0.506207 11.4744 0.599983C12.1619 0.753508 12.509 1.18739 12.5157 1.90161C12.5224 2.60917 12.3221 3.12648 11.9149 3.45356C11.6996 3.63299 11.5036 3.72271 11.3268 3.72271C11.1748 3.72271 11.0371 3.65636 10.9137 3.52365C10.7935 3.4035 10.7702 3.30671 10.8436 3.23328C11.0372 3.17321 11.1273 3.02302 11.1139 2.78272C11.3209 2.52907 11.4243 2.31213 11.4243 2.1319C11.4371 1.81765 11.2928 1.66053 10.9914 1.66053C10.9791 1.66053 10.9666 1.66079 10.9537 1.66131C10.8202 1.67466 10.7067 1.71805 10.6133 1.79148C10.0227 1.39978 9.50291 1.20393 9.0538 1.20393C9.00544 1.20393 8.95789 1.20621 8.91117 1.21075L8.91117 1.21075C9.10474 0.870321 9.40845 0.64337 9.82231 0.529895C9.99114 0.482844 10.1846 0.459318 10.4028 0.459318ZM13.2166 7.18824C13.4769 7.72224 13.9875 8.49988 14.7485 9.52116C14.4615 9.32758 13.7572 9.124 12.6358 8.91039L13.2166 7.18824ZM9.06494 1.54672C9.48604 1.54672 9.93541 1.72843 10.413 2.09185L10.343 2.2921C10.399 2.32481 10.4535 2.34116 10.5063 2.34116C10.5289 2.34116 10.5512 2.33816 10.5732 2.33215C10.68 2.0518 10.8002 1.91163 10.9337 1.91163C10.9497 1.90962 10.9649 1.90862 10.9792 1.90862C11.1077 1.90862 11.166 1.98972 11.154 2.15193C11.154 2.3188 11.0639 2.5057 10.8836 2.71263C10.8836 2.89737 10.8387 2.98973 10.7488 2.98973C10.7348 2.98973 10.7196 2.98748 10.7034 2.98297C10.5833 2.95627 10.5332 2.88952 10.5532 2.78272L10.5532 2.78272C10.4731 3.08309 10.5432 3.46357 10.7635 3.92415C10.9771 4.3914 11.1406 4.74851 11.2541 4.99549C11.3676 5.24247 11.5478 5.37263 11.7948 5.38598C12.0418 5.39933 12.3254 5.43604 12.6458 5.49612C12.9662 5.55619 13.053 5.77313 12.9062 6.14693C12.7593 6.52073 12.4523 7.35845 11.985 8.66008L11.5144 8.43981C11.1874 7.77898 10.62 7.21828 9.81229 6.7577L9.81229 6.7577C9.65877 6.90455 9.68881 7.09812 9.90241 7.33843L9.54196 8.12942C9.49523 8.44314 9.61538 8.69012 9.90241 8.87035C10.3029 9.05057 10.7435 9.14068 11.2241 9.14068L11.8549 9.65132L11.6746 12.9555L9.87237 13.356C8.93119 10.3455 8.37049 8.71014 8.19026 8.44982C8.01004 8.18949 7.95997 7.44523 8.04007 6.21702C8.0067 5.79649 8.35046 5.58623 9.07137 5.58623C9.81897 5.58623 10.1627 5.41602 10.1027 5.07559L9.96248 4.66508C9.88906 4.41142 9.85902 4.25456 9.87237 4.19449C9.81363 4.17847 9.74528 4.17046 9.66731 4.17046C9.55037 4.17046 9.41179 4.18848 9.25159 4.22452C9.10029 4.23787 8.96976 4.24455 8.85999 4.24455C8.64046 4.24455 8.50399 4.21785 8.45059 4.16445C8.37049 4.08435 8.34379 3.97421 8.37049 3.83403L8.69089 3.7239C8.76431 3.68385 8.77766 3.6171 8.73094 3.52365L8.28038 3.4836C8.38718 3.25664 8.37383 3.10646 8.24032 3.03303C8.2203 3.03451 8.20139 3.03526 8.18359 3.03526C8.04119 3.03526 7.96999 2.98779 7.96999 2.89286C8.01671 2.80608 8.11016 2.64588 8.25034 2.41225C8.39051 2.17863 8.56073 2.02844 8.76098 1.96169C8.85095 1.93267 8.94028 1.91816 9.02899 1.91816C9.14431 1.91816 9.25856 1.94268 9.37174 1.99173C9.57199 2.07183 9.76223 2.13524 9.94246 2.18196L9.99252 2.06181C9.82564 2.02176 9.65209 1.95501 9.47187 1.86156C9.29832 1.77145 9.13645 1.72639 8.98626 1.72639C8.83607 1.72639 8.69757 1.77145 8.57074 1.86156C8.60411 1.74141 8.65084 1.6513 8.71091 1.59122C8.82662 1.56156 8.94462 1.54672 9.06494 1.54672ZM5.1865 11.003L8.87111 13.5562L4.75596 14.7978C4.84941 12.8954 4.72258 11.6305 4.37548 11.003L5.1865 11.003ZM11.7647 13.406C12.0451 14.4807 11.8782 15.4152 11.2641 16.2095C10.714 16.538 10.0948 16.7022 9.40627 16.7022C8.93345 16.7022 8.42799 16.6248 7.88989 16.4699C7.3384 16.3083 6.79854 16.2275 6.2703 16.2275C5.53259 16.2275 4.81755 16.3851 4.12517 16.7002C4.24532 16.2796 5.22655 15.5921 7.06886 14.6376L11.7647 13.406ZM10.5465 0C10.3328 0 10.1181 0.0164308 9.90241 0.0492925C9.1548 0.136068 8.60745 0.650045 8.26035 1.59122C8.21363 1.84488 8.10015 2.08184 7.91992 2.30212C7.7397 2.51572 7.62288 2.75268 7.56948 3.01301C7.56948 3.15986 7.66293 3.23662 7.84984 3.24329C8.03674 3.24997 8.0601 3.31338 7.91992 3.43353C7.85985 3.44688 7.83649 3.47692 7.84984 3.52365C7.85651 3.57037 7.87987 3.60041 7.91992 3.61376C7.83315 3.70721 7.83315 3.77062 7.91992 3.804C8.01337 3.84405 8.04675 3.9108 8.02005 4.00425C8.00002 4.10437 8.01671 4.22786 8.07011 4.37471C8.12351 4.52824 8.39051 4.605 8.87111 4.605L9.49189 4.51489L9.49189 4.51489C9.46519 4.61501 9.48188 4.73516 9.54196 4.87534C8.34045 4.88869 7.59285 5.14902 7.29915 5.65632C6.29122 6.49737 5.33335 7.38849 4.42555 8.32967C4.24532 7.95587 3.83481 7.44523 3.194 6.79775C2.55987 6.15695 2.18941 5.68636 2.08261 5.38598C1.86233 4.73183 1.39174 4.11105 0.670841 3.52365C0.51064 3.6438 0.51064 3.83737 0.670841 4.10437L0.220276 4.82528C0.133501 5.139 0.216938 5.40267 0.47059 5.61627C0.857741 5.84989 1.25491 6.09687 1.66208 6.3572C2.78349 8.34636 3.60452 9.42104 4.12517 9.58124C4.15399 9.58563 4.18403 9.58783 4.21532 9.58783C4.61156 9.58783 5.20563 9.23519 5.99751 8.52992C6.78222 7.84392 7.24765 7.50092 7.39379 7.50092C7.4453 7.50092 7.45715 7.54354 7.42931 7.62879C7.42931 8.06267 7.51942 8.43313 7.69965 8.74018C7.87987 9.04723 8.32043 10.4423 9.0213 12.9254L5.7472 10.4824C5.25325 10.0351 4.81937 9.81152 4.44557 9.81152C3.39759 9.82487 2.93368 10.2588 3.05383 11.1132L3.61453 15.1082C2.8202 15.3017 2.45307 15.8992 2.51315 16.9004C2.1527 16.9738 1.82228 17.0773 1.52191 17.2108C1.27928 17.3156 1.03438 17.3679 0.787203 17.3679C0.735167 17.3679 0.683029 17.3656 0.63079 17.361C0.612767 17.3598 0.595069 17.3592 0.577695 17.3592C0.305506 17.3592 0.112941 17.5066 0 17.8015L15.9099 17.8015C15.6393 17.2712 15.2726 17.0061 14.8099 17.0061C14.7135 17.0061 14.6129 17.0176 14.5082 17.0406C14.4072 17.063 14.3117 17.0742 14.2217 17.0742C13.776 17.0742 13.4644 16.7994 13.2866 16.2496C13.155 15.8333 12.9652 15.6252 12.7173 15.6252C12.5756 15.6252 12.4149 15.6931 12.2353 15.8291C12.7159 14.9012 12.7293 13.9267 12.2754 12.9054C12.2954 11.7973 12.3421 10.8094 12.4156 9.94169C13.9842 10.4356 15.0222 10.6826 15.5295 10.6826C15.9233 10.6426 16.1202 10.4724 16.1202 10.172C15.7731 8.82362 14.9721 7.3184 13.7172 5.65632C13.4635 5.14902 12.8127 4.872 11.7647 4.82528C11.5845 4.58498 11.4877 4.37471 11.4744 4.19449C11.9083 4.09436 12.272 3.86741 12.5657 3.51363C12.8661 3.15986 13.013 2.5858 13.0063 1.79148C12.9996 1.00382 12.6559 0.489845 11.975 0.249543C11.5036 0.0831811 11.0275 0 10.5465 0Z" fill="#ffffff" fill-rule="nonzero" opacity="1" stroke="none"/>
<path d="M22.4076 1.8987C22.2115 1.8987 22.054 1.95452 21.9349 2.06615L21.9349 2.2604C22.0857 2.13338 22.2672 2.06987 22.4794 2.06987C22.6517 2.06987 22.8443 2.1118 23.0572 2.19565L23.2298 2.19565L23.2298 2.04457L23.0572 2.04457C22.8071 1.94732 22.5906 1.8987 22.4076 1.8987ZM22.4744 2.30356C22.5896 2.30356 22.7047 2.33234 22.8198 2.38989C22.7478 2.41867 22.6255 2.45464 22.4529 2.49781C22.496 2.46903 22.5176 2.43306 22.5176 2.38989C22.5176 2.36112 22.5032 2.33234 22.4744 2.30356ZM22.2586 2.32515C22.2442 2.33953 22.237 2.36831 22.237 2.41148C22.237 2.44025 22.2658 2.46903 22.3234 2.49781C22.2946 2.5026 22.265 2.505 22.2346 2.505C22.1739 2.505 22.1099 2.49541 22.0428 2.47623C22.1291 2.37551 22.2011 2.32515 22.2586 2.32515ZM22.4313 2.17407C22.1579 2.17407 21.9852 2.28198 21.9133 2.49781L21.9349 2.56256L22.0644 2.56256C22.1219 2.6086 22.1933 2.63162 22.2785 2.63162C22.2998 2.63162 22.3219 2.63018 22.345 2.6273C22.4457 2.6273 22.6759 2.55536 23.0356 2.41148L23.2298 2.43306L23.2298 2.32515L23.0356 2.32515C22.7334 2.22443 22.532 2.17407 22.4313 2.17407ZM22.4121 1.69549C22.5932 1.69549 22.765 1.72192 22.9277 1.77479C23.2155 1.86831 23.3593 2.06615 23.3593 2.36831L23.7047 2.36831C23.7047 2.09493 23.7766 1.95824 23.9205 1.95824C24.0356 1.95824 24.0932 2.03738 24.0932 2.19565C24.0932 2.32515 24.0032 2.505 23.8234 2.73522C23.6435 2.96543 23.496 3.15968 23.3809 3.31795L23.3809 5.36831L23.3162 5.36831C23.1003 5.06615 22.9421 4.67766 22.8414 4.20284L22.2586 4.20284C22.0428 4.20284 21.9349 4.1381 21.9349 4.0086C21.9349 3.80716 22.0356 3.69205 22.237 3.66328C22.237 3.54817 22.2011 3.49061 22.1291 3.49061L21.7406 3.49061C21.827 3.31795 21.7478 3.20284 21.5032 3.14529C21.5032 3.04457 21.6111 2.80716 21.827 2.43306C21.8126 2.15968 21.8629 1.92946 21.978 1.74241C22.1282 1.71113 22.2729 1.69549 22.4121 1.69549ZM23.8773 0.404282C24.9996 0.404282 25.7334 0.810757 26.0788 1.62371C26.4241 2.43666 26.5824 3.7568 26.5536 5.58414L26.5536 8.2604L23.8342 8.2604L23.8342 3.3827C23.9205 3.23881 24.0428 3.03738 24.2011 2.77838C24.3593 2.51939 24.4385 2.2604 24.4385 2.00141C24.4385 1.72802 24.2658 1.59133 23.9205 1.59133C23.6903 1.59133 23.5536 1.73522 23.5104 2.02299C23.5104 1.73522 23.3845 1.55176 23.1327 1.47263C22.8809 1.39349 22.5176 1.35392 22.0428 1.35392C22.1435 0.720829 22.755 0.404282 23.8773 0.404282ZM23.3809 6.27479L23.3809 8.73522L25.6903 8.73522C25.6759 9.61292 25.5932 10.6813 25.4421 11.9403C25.291 13.1992 25.1003 14.2604 24.8701 15.1237C24.6399 15.987 24.7982 16.6921 25.345 17.2388L18.9565 17.2388C19.1147 17.0805 19.2191 16.818 19.2694 16.451C19.3198 16.0841 19.1579 15.4546 18.7838 14.5626L17.1435 9.66327C17.0572 9.34673 17.1687 9.1309 17.478 9.01579C17.577 8.97896 17.6676 8.96054 17.7496 8.96054C17.924 8.96054 18.0601 9.04371 18.1579 9.21004L20.3593 12.4906L21.1795 13.5266C21.3234 13.6273 21.4513 13.6777 21.5632 13.6777C21.787 13.6777 21.9469 13.4762 22.0428 13.0733C22.5464 11.8791 22.809 10.7208 22.8306 9.59853C22.8521 8.47622 23.0356 7.36831 23.3809 6.27479ZM23.8342 0.0157932C22.5392 0.0157932 21.8126 0.469031 21.6543 1.37551C21.5824 1.64889 21.5464 2.0014 21.5464 2.43306C21.345 2.82155 21.2442 3.08774 21.2442 3.23162C21.2442 3.30356 21.3378 3.34673 21.5248 3.36112L21.4385 3.53378C21.4816 3.59133 21.532 3.62011 21.5896 3.62011C21.5464 3.69205 21.5392 3.77119 21.568 3.85752L21.6759 3.85752C21.5896 4.2604 21.7478 4.46184 22.1507 4.46184L22.5608 4.46184C22.6615 4.85033 22.8054 5.17407 22.9924 5.43306C22.5752 6.74241 22.3414 8.0014 22.291 9.21004C22.2406 10.4187 21.9493 11.6345 21.4169 12.8575L18.568 8.73522C18.3909 8.48729 18.1511 8.36333 17.8487 8.36333C17.6597 8.36333 17.4462 8.41175 17.2083 8.5086C16.5896 8.7604 16.3593 9.16687 16.5176 9.72802C17.9565 13.9726 18.6543 16.246 18.6111 16.5482C18.568 16.8647 18.3557 17.1345 17.9744 17.3575C17.5932 17.5805 17.496 17.8 17.6831 18.0158L26.273 18.0158C26.5464 17.8719 26.5464 17.6705 26.273 17.4115C25.5104 16.505 25.2622 15.6309 25.5284 14.7892C25.7946 13.9474 26.0284 11.9295 26.2298 8.73522L27.0284 8.73522L27.0284 5.58414C27.0284 3.56975 26.809 2.1381 26.3701 1.28917C25.9313 0.440254 25.086 0.0157932 23.8342 0.0157932Z" fill="#ffffff" fill-rule="nonzero" opacity="1" stroke="none"/>
</g>
</svg>
